<?xml version="1.0" standalone="no"?>
<!DOCTYPE svg PUBLIC "-//W3C//DTD SVG 1.1//EN" "http://www.w3.org/Graphics/SVG/1.1/DTD/svg11.dtd" >
<!--
2013-9-30: Created.
-->
<svg>
<metadata>
Created by iconfont
</metadata>
<defs>

<font id="iconfont" horiz-adv-x="1024" >
  <font-face
    font-family="iconfont"
    font-weight="500"
    font-stretch="normal"
    units-per-em="1024"
    ascent="896"
    descent="-128"
  />
    <missing-glyph />
    
    <glyph glyph-name="download" unicode="&#58936;" d="M760.4736 402.0736c-9.984 9.984-26.2144 9.984-36.1984 0l-212.2752-212.2752 0 578.2016c0 14.1312-11.4688 25.6-25.6 25.6s-25.6-11.4688-25.6-25.6l0-578.2016-212.2752 212.2752c-9.984 9.984-26.2144 9.984-36.1984 0s-9.984-26.2144 0-36.1984l256-256c5.0176-5.0176 11.5712-7.4752 18.1248-7.4752s13.1072 2.5088 18.1248 7.5264l256 256c9.984 9.984 9.984 26.2144 0 36.1984zM896-76.8l-819.2 0c-42.3424 0-76.8 34.4576-76.8 76.8l0 102.4c0 14.1312 11.4688 25.6 25.6 25.6s25.6-11.4688 25.6-25.6l0-102.4c0-14.1312 11.4688-25.6 25.6-25.6l819.2 0c14.1312 0 25.6 11.4688 25.6 25.6l0 102.4c0 14.1312 11.4688 25.6 25.6 25.6s25.6-11.4688 25.6-25.6l0-102.4c0-42.3424-34.4576-76.8-76.8-76.8z"  horiz-adv-x="1024" />

    
    <glyph glyph-name="systemmanage" unicode="&#58949;" d="M124.64 716.64c2.4-3.328 4.352-7.104 7.36-9.888 41.376-38.496 82.88-76.864 124.384-115.232 27.136-25.056 58.08-25.056 85.024-0.128 18.112 16.736 36.288 33.408 54.272 50.272 23.392 21.952 23.488 52.032-0.16 74.016-43.36 40.288-87.008 80.288-130.496 120.416-3.008 2.784-5.824 5.696-9.632 9.44 35.072 13.408 70.304 19.232 106.88 16.96 142.688-8.896 243.616-122.656 225.088-253.856-1.28-9.024 2.496-14.08 8.672-19.744 165.056-152.384 330.016-304.8 494.88-457.312 48.864-45.216 58.24-110.72 23.872-163.264-47.424-72.512-156.16-85.088-221.024-25.216-168.064 155.232-335.968 310.656-503.744 466.112-6.336 5.888-12.192 8.032-21.504 7.36-141.824-10.176-259.424 88.832-261.984 220.48-0.512 26.336 4.064 52.128 18.112 79.552zM923.968 32.064c0-37.6 32.896-68.192 73.568-68.384 40.256-0.224 73.952 30.592 74.272 67.904 0.32 37.984-33.312 69.12-74.272 68.832-40.736-0.288-73.568-30.784-73.568-68.352zM707.84 550.4c-13.568 12.192-25.984 23.296-38.72 34.752 2.272 2.496 3.808 4.576 5.696 6.336 86.048 79.616 171.904 159.424 258.208 238.752 57.152 52.576 149.92 41.312 189.12-22.4 25.728-41.824 20.448-95.36-16.16-129.728-87.552-82.336-176.288-163.552-264.608-245.216-0.8-0.768-1.92-1.216-2.56-1.6-12.256 11.84-24.384 23.584-39.776 38.464 1.504 0.768 6.496 2.112 9.728 5.088 87.072 80.224 173.92 160.608 260.8 241.024 2.784 2.56 7.232 5.088 7.616 8.064 0.832 5.92 1.312 13.088-1.6 17.92-3.84 6.4-12.064 8.288-19.68 4.256-4.32-2.336-8.096-5.76-11.68-9.056-86.336-79.872-172.64-159.776-258.784-239.776-3.264-3.04-5.376-7.136-7.872-10.464-16.288 15.2-30.048 28.032-46.848 43.68 3.616 2.112 8.256 3.84 11.552 6.848 86.432 79.776 172.768 159.648 259.136 239.52 13.28 12.256 15.168 20.928 6.24 28.672-8.48 7.36-17.568 5.504-30.208-6.144-86.624-80.128-173.248-160.224-259.872-240.352-3.008-2.784-6.208-5.44-9.728-8.576zM147.52-95.552c-13.76 13.088-27.52 26.624-41.824 39.584-5.536 5.056-1.792 8.256 0.96 12.128 29.664 41.632 59.296 83.264 88.992 124.896 2.816 3.968 6.336 7.616 8.32 11.904 12.352 26.816 34.88 39.168 65.6 40.832 19.392 1.056 33.792 9.984 47.36 22.976 42.368 40.608 85.984 80.064 129.152 119.936 2.752 2.496 5.6 4.928 7.68 6.752 19.232-17.76 38.016-35.136 57.824-53.408-7.968-7.104-16.8-14.784-25.376-22.688-41.248-38.048-82.528-76.064-123.424-114.432-4.608-4.352-8.064-10.656-9.792-16.576-4.48-15.84-7.36-32.032-11.68-47.904-1.088-4.064-4.192-8.768-7.904-11.04-59.616-36.704-119.456-73.088-179.264-109.504-1.664-0.96-3.424-1.728-6.656-3.392z"  horiz-adv-x="1248" />

    
    <glyph glyph-name="component" unicode="&#59102;" d="M826.56 425.984c-32.896 0-64.384-12.288-89.984-35.52l0 104.96c0 62.208-50.496 112.832-112.64 113.088L623.936 608.96 519.552 608.896C541.824 633.28 554.56 665.28 554.56 698.88c0 73.536-59.904 133.44-133.504 133.44-73.472 0-133.376-59.904-133.376-133.44 0-32.896 12.224-64.256 35.52-89.984L175.232 608.896l0-0.576C113.728 607.296 64 557.12 64 495.424l0.32 0 0.32-116.48C60.864 351.104 70.592 318.272 100.8 307.52c12.736-4.608 37.632-7.488 60.864 25.28 12.992 18.368 34.24 29.248 56.64 29.248 38.336 0 69.504-31.104 69.504-69.312 0-38.4-31.168-69.504-69.504-69.504-22.656 0-44.032 11.264-57.344 30.4C138.688 285.888 112.576 280.64 102.464 276.864c-29.824-10.752-39.104-43.776-38.144-67.392l0-160.384L64 49.088C64-13.248 114.752-64 177.216-64l446.272 0c62.4 0 113.152 50.752 113.152 113.152l0 145.024c24.384-22.272 56.384-35.008 89.984-35.008 73.536 0 133.44 59.904 133.44 133.504C960 366.08 900.096 425.984 826.56 425.984zM826.56 223.104c-22.72 0-44.032 11.264-57.344 30.4-22.272 32.384-48.448 27.136-58.56 23.36-29.824-10.752-39.04-43.776-38.08-67.392l0-160.384c0-27.136-22.016-49.152-49.152-49.152L177.216-0.064C150.08 0 128 22.016 128 49.152l0.32 0 0 145.024c24.384-22.272 56.384-35.008 89.984-35.008 73.6 0 133.504 59.904 133.504 133.504 0 73.472-59.904 133.376-133.504 133.376-32.896 0-64.32-12.288-89.984-35.52l0 104.96L128 495.488c0 27.072 22.08 49.152 49.216 49.152L177.216 544.96 334.656 545.28c3.776-0.512 7.616-0.832 11.52-0.832 24.896 0 50.752 10.816 60.032 37.056 4.544 12.736 7.424 37.568-25.344 60.736C362.624 655.232 351.68 676.48 351.68 698.88c0 38.272 31.104 69.44 69.376 69.44 38.336 0 69.504-31.168 69.504-69.44 0-22.72-11.264-44.032-30.528-57.472C427.968 619.264 433.088 593.216 436.8 582.976c10.752-29.888 43.072-39.232 67.392-38.08l119.232 0 0-0.384c27.136 0 49.152-22.08 49.152-49.152l0.256-116.48c-3.776-27.84 6.016-60.736 36.224-71.488 12.736-4.608 37.632-7.488 60.8 25.28 13.056 18.368 34.24 29.248 56.704 29.248C864.832 361.984 896 330.88 896 292.608 896 254.272 864.832 223.104 826.56 223.104z"  horiz-adv-x="1024" />

    
    <glyph glyph-name="save" unicode="&#59366;" d="M780.8 832 160 832C102.4 832 64 787.2 64 736l0-704C64-19.2 102.4-64 160-64l704 0c51.2 0 96 44.8 96 96L960 684.8 780.8 832zM320 768l96 0 0-128 192 0L608 768 704 768c0 0 0 0 0 0l0-224C704 524.8 684.8 512 672 512l-320 0C332.8 512 320 524.8 320 544L320 768zM896 32c0-19.2-12.8-32-32-32l-704 0C140.8 0 128 12.8 128 32l0 704C128 755.2 140.8 768 160 768L256 768l0-224C256 492.8 294.4 448 352 448l320 0C723.2 448 768 492.8 768 544L768 768l128-108.8L896 32zM768 352C768 332.8 748.8 320 736 320l-448 0C268.8 320 256 332.8 256 352l0 0C256 371.2 268.8 384 288 384l448 0C748.8 384 768 371.2 768 352L768 352zM768 224c0-19.2-12.8-32-32-32l-448 0C268.8 192 256 204.8 256 224l0 0C256 243.2 268.8 256 288 256l448 0C748.8 256 768 243.2 768 224L768 224zM768 96c0-19.2-12.8-32-32-32l-448 0C268.8 64 256 76.8 256 96l0 0C256 115.2 268.8 128 288 128l448 0C748.8 128 768 115.2 768 96L768 96z"  horiz-adv-x="1024" />

    
    <glyph glyph-name="tijianxuzhi" unicode="&#58943;" d="M524.14360784 830.39338957c-262.16124325 0-474.68431359-185.22081805-474.68431358-413.70133414s212.52174604-413.70133414 474.68431358-413.70133413c43.03317327 0 84.52173584 5.43660636 124.15702965 14.79037677l172.52083189-103.79360216L820.82146938 94.03135184999996c108.42478564 75.82104702 178.00645205 192.08281072 178.00645206 322.66070488C998.82792144 645.17389715 786.30485109 830.39338957 524.14360784 830.39338957zM546.25962525 179.64464754000005l-68.78021776 0 0 68.7616722 68.78021776 0L546.25962525 179.64464754000005zM667.24795142 514.5655347300001c-2.16324982-9.85053654-5.94926812-19.58582293-11.35673052-29.20453485-5.40878673-9.61871193-12.76754551-19.46924847-22.05773082-29.51319292-9.31005516-10.04394445-20.88006346-21.13043364-34.70870187-33.26079448-14.06178606-11.89853622-25.08998865-21.78748947-33.08593342-29.66818409-7.99594347-7.91911004-14.00349947-15.91505481-18.00147121-23.98915602-3.99797174-8.11251794-6.48974949-17.38283207-7.45546209-27.73675759-0.98558377-10.39101792-1.46777726-23.91232259-1.46777726-40.56126539l-59.02638583 0c0 20.74361913 0.96571261 37.85753547 2.91700898 51.26226568s5.29221226 25.38009986 10.06249001 36.00294239c4.75173088 10.58442582 11.45343383 20.78336016 20.10643315 30.63389671 8.63445377 9.85053654 19.77790652 21.47883271 33.41446133 34.88223859 9.50346307 9.27163845 18.03988791 17.19074977 25.61192448 23.68049928 7.35875878 6.48974949 13.51998035 12.82450779 18.48499031 18.9671838 4.98355551 6.18109273 8.7112872 12.82450779 11.20306495 19.93289641 2.47190659 7.14680532 3.7277317 15.91505481 3.7277317 26.30739705 0 12.74767566-2.33678657 24.52963741-6.9732686 35.34588655-4.65502757 10.81624915-11.08649049 20.16472102-19.29571173 28.04541564-8.2277681 7.88069461-17.96305447 14.06178606-29.20453485 18.50353587-11.24148037 4.4033331-23.5639248 6.64474067-36.96865501 6.64474067-53.42551551 0-85.10195825-30.94255346-95.04919808-92.78924495l-64.85907948 0c1.50619398 21.43909169 6.4314629 40.86992345 14.75725863 58.40774669 8.3244714 17.49940654 19.4507029 32.48716417 33.39591448 44.92618176 13.96508275 12.4390176 30.34378549 22.05773081 49.15597812 28.85613706 18.81219262 6.79840625 39.3451826 10.23735105 61.61486687 10.23735105 24.22098064 0 46.06675671-3.43762049 65.53600519-10.23735105 19.4507029-6.79840625 36.04135913-16.14687813 49.7944884-28.04541563 13.71338826-11.89853622 24.31768395-25.99741468 31.77314604-42.33770071 7.47533326-16.34028603 11.20306496-34.10993261 11.20306496-53.34735777C670.49216272 535.04023683 669.39133009 524.37765456 667.24795142 514.5655347300001z"  horiz-adv-x="1024" />

    
    <glyph glyph-name="zip" unicode="&#59201;" d="M905.185809 717.155842C898.576738 723.314515 891.19337 730.175588 883.21687 737.563873 860.422682 758.677137 837.434925 779.792209 815.697647 799.512105 813.243072 801.738123 813.243072 801.738123 810.786411 803.962919 781.783552 830.218938 757.590948 851.623498 739.713617 866.706388 729.254178 875.530889 721.020606 882.139314 714.970549 886.498273 710.955023 889.391389 707.690543 891.475255 704.47155 893.001286 700.417679 894.92311 696.638044 896.094029 691.307277 895.994072 677.045677 895.726651 665.6 884.230663 665.6 869.817273L665.6 818.647156 665.6 767.477039 665.6 665.136806 665.6 639.551748 691.2 639.551748 896 639.551748 870.4 665.136806 870.4-102.414942 896-76.829884 230.381436-76.829884C187.90385-76.829884 153.6-42.623723 153.6-0.20663L153.6 869.817273 128 844.232214 588.8 844.232214C602.93849 844.232214 614.4 855.687035 614.4 869.817273 614.4 883.94751 602.93849 895.402331 588.8 895.402331L128 895.402331 102.4 895.402331 102.4 869.817273 102.4-0.20663C102.4-70.91021 159.652833-128 230.381436-128L896-128 921.6-128 921.6-102.414942 921.6 665.136806 921.6 690.721865 896 690.721865 691.2 690.721865 716.8 665.136806 716.8 767.477039 716.8 818.647156 716.8 869.817273C716.8 856.186238 705.748075 845.08573 692.267725 844.832959 687.705707 844.747416 685.069822 845.564005 682.52845 846.768796 682.259458 846.896318 683.344977 846.203382 685.029451 844.989748 689.779394 841.567498 697.145822 835.65506 706.686383 827.605804 724.009052 812.990879 747.816448 791.927131 776.413589 766.038406 778.850014 763.831936 778.850014 763.831936 781.285216 761.623486 802.876774 742.035788 825.739479 721.03558 848.413564 700.033563 856.350957 692.6815 863.697005 685.855107 870.269888 679.730157 874.209847 676.058701 877.019309 673.434359 878.499674 672.048591 888.81866 662.389069 905.019017 662.918788 914.684179 673.231753 924.349344 683.544717 923.819315 699.735617 913.500326 709.395139 911.981323 710.817055 909.155025 713.457124 905.185809 717.155842ZM102.4 434.871281 0 434.871281 0-0.074709 512-0.074709 1024-0.074709 1024 434.871281 153.6 434.871281 153.6 435.468951 102.4 435.468951 102.4 434.871281ZM282 117.2 437.6 117.2 437.6 76.8 220.8 76.8 220.8 109.6 371.4 327.2 221.8 327.2 221.8 368 432.8 368 432.8 336 282 117.2ZM534.4 76.8 484 76.8 484 368 534.4 368 534.4 76.8ZM647.2 185 647.2 76.8 596.6 76.8 596.6 368 708 368C740.533495 368 766.366571 359.533419 785.5 342.6 804.633429 325.666581 814.2 303.266805 814.2 275.4 814.2 246.866524 804.833427 224.666746 786.1 208.8 767.366573 192.933254 741.133502 185 707.4 185L647.2 185ZM647.2 225.6 708 225.6C726.00009 225.6 739.733286 229.833291 749.2 238.3 758.666714 246.766709 763.4 258.999921 763.4 275 763.4 290.733412 758.600047 303.299953 749 312.7 739.399951 322.100047 726.200083 326.933331 709.4 327.2L647.2 327.2 647.2 225.6Z"  horiz-adv-x="1024" />

    
    <glyph glyph-name="systemset" unicode="&#58935;" d="M920.419872 477.214141l-76.229871 0c-7.654882 26.792088-18.339822 52.308363-31.735867 76.070394l54.859991 54.859991c24.718891 24.718891 24.718891 64.58807 0 89.306962l-44.653481 44.653481c-24.718891 24.718891-64.58807 24.718891-89.306962 0l-55.816851-55.816851c-22.32674 12.279707-46.248248 21.84831-71.286093 28.865286L606.25074 791.383274c0 34.765924-28.067902 62.833827-62.833827 62.833827l-62.833827 0c-34.765924 0-62.833827-28.067902-62.833827-62.833827l0-76.070394c-25.835228-7.335929-50.554119-17.542439-73.678243-30.300576l-57.411618 57.411618c-24.718891 24.718891-64.58807 24.718891-89.306962 0l-44.653481-44.653481c-24.718891-24.718891-24.718891-64.58807 0-89.306962l57.411618-57.411618c-12.917614-23.124124-22.964647-47.683538-30.300576-73.678243L103.580128 477.373618c-34.765924 0-62.833827-28.067902-62.833827-62.833827l0-62.833827c0-34.765924 28.067902-62.833827 62.833827-62.833827l76.229871 0c7.016976-24.878368 16.585579-48.959352 28.865286-71.286093l-55.816851-55.816851c-24.718891-24.718891-24.718891-64.58807 0-89.306962l44.653481-44.653481c24.718891-24.718891 64.58807-24.718891 89.306962 0l54.859991 54.859991c23.762031-13.555521 49.278306-24.240461 76.070394-31.735867l0-76.229871c0-34.765924 28.067902-62.833827 62.833827-62.833827l62.833827 0c34.765924 0 62.833827 28.067902 62.833827 62.833827L606.25074 50.7734c25.835228 7.335929 50.554119 17.542439 73.678243 30.300576l53.4247-53.4247c24.718891-24.718891 64.58807-24.718891 89.306962 0l44.653481 44.653481c24.718891 24.718891 24.718891 64.58807 0 89.306962L813.889425 215.034418c12.917614 23.124124 22.964647 47.683538 30.300576 73.678243l76.229871 0c34.765924 0 62.833827 28.227379 62.833827 62.833827L983.253699 414.380315C983.253699 448.986762 955.02632 477.214141 920.419872 477.214141M512 194.461922c-104.138296 0-188.50148 84.363183-188.50148 188.50148 0 104.138296 84.363183 188.50148 188.50148 188.50148 104.138296 0 188.50148-84.363183 188.50148-188.50148C700.50148 278.825105 616.138296 194.461922 512 194.461922M512 477.214141c-51.98941 0-94.25074-42.26133-94.25074-94.25074 0-51.98941 42.26133-94.25074 94.25074-94.25074 51.98941 0 94.25074 42.26133 94.25074 94.25074C606.25074 434.952811 563.98941 477.214141 512 477.214141"  horiz-adv-x="1024" />

    
    <glyph glyph-name="lock" unicode="&#59696;" d="M512 170.666667C558.933333 170.666667 597.333333 209.066667 597.333333 256 597.333333 303.36 558.933333 341.333333 512 341.333333 465.066667 341.333333 426.666667 302.933333 426.666667 256 426.666667 209.066667 465.066667 170.666667 512 170.666667M768 554.666667C814.933333 554.666667 853.333333 516.266667 853.333333 469.333333L853.333333 42.666667C853.333333-4.266667 814.933333-42.666667 768-42.666667L256-42.666667C209.066667-42.666667 170.666667-4.266667 170.666667 42.666667L170.666667 469.333333C170.666667 516.693333 209.066667 554.666667 256 554.666667L298.666667 554.666667 298.666667 640C298.666667 757.76 394.24 853.333333 512 853.333333 629.76 853.333333 725.333333 757.76 725.333333 640L725.333333 554.666667 768 554.666667M512 768C441.173333 768 384 710.826667 384 640L384 554.666667 640 554.666667 640 640C640 710.826667 582.826667 768 512 768Z"  horiz-adv-x="1024" />

    
    <glyph glyph-name="home" unicode="&#58905;" d="M986.682 370.605l-393.311 379.753c-83.743 91.241-162.751 0-162.751 0l-393.31-366.188c-29.844-114.317 81.372-81.378 81.372-81.378l325.502 298.374c75.656 75.616 135.623 0 135.623 0l339.066-311.937c100.552-20.236 67.807 81.377 67.807 81.377zM566.243 519.792c0 0-60.786 51.998-108.493 0l-311.939-284.816v-230.56c0 0 13.849-20.372 40.686-27.129 12.637 1.802 230.565 0 230.565 0v149.188c0 0-1.947 10.677 13.558 13.565h162.751c0 0 11.949 8.769 13.565-13.565v-149.187h217.001c0 0 35.289-4.278 40.694 27.129l-0 230.559-298.388 284.816z"  horiz-adv-x="1024" />

    
    <glyph glyph-name="clouddownloadyunxiazai" unicode="&#59163;" d="M781.486664 173.250088 653.756561 173.250088c-10.644431 0-15.966647 5.288446-15.966647 15.966647 0 10.644431 5.322216 15.966647 15.966647 15.966647l127.730103 0c39.910988 0 73.844845 13.973246 101.784174 41.912575 27.939329 27.947516 41.912575 61.872163 41.912575 101.784174 0 34.597983-10.975982 65.159022-32.92897 91.812055-21.952988 26.610054-50.232055 43.198871-84.821851 49.891294-10.644431 2.665713-14.638395 8.652054-11.972683 17.959024 1.328251 6.658653 1.992377 17.260106 1.992377 31.93227 0 57.172117-20.292162 106.067734-60.876486 146.694013-40.576137 40.584324-89.470731 60.867276-146.685827 60.867276-45.242414 0-86.481653-13.96506-123.736139-41.904389-37.254485-27.947516-62.536288-63.201437-75.846432-105.778138 0-5.322216-3.320629-9.31618-9.971096-11.980869-7.986905 0-13.30912 1.294482-15.966647 3.993964-18.631336 18.631336-41.912575 27.939329-69.860091 27.939329-29.267581 0-53.885258-9.971096-73.836659-29.931706-19.959587-19.959587-29.939893-44.612057-29.939893-73.844845 0-7.986905 0.664126-13.973246 1.992377-17.959024 0-7.986905-3.320629-13.973246-9.980305-17.96721-58.543348-23.945365-87.809905-67.858504-87.809905-131.724067 0-39.910988 13.973246-73.836659 41.912575-101.784174 27.939329-27.939329 61.863976-41.912575 101.784174-41.912575l223.527936 0c10.644431 0 15.966647-5.322216 15.966647-15.966647 0-10.6782-5.322216-15.966647-15.966647-15.966647L238.632959 173.249065c-49.227168 0-90.808192 16.971533-124.741026 50.89618-33.92567 33.92567-50.887994 75.505671-50.887994 124.732839 0 71.852468 31.93227 124.409474 95.797833 157.669996l0 9.980305c0 37.21253 13.300934 69.1448 39.910988 95.797833 26.610054 26.610054 58.543348 39.910988 95.797833 39.910988 26.610054 0 51.228755-7.314593 73.844845-21.952988 18.631336 45.199435 47.898917 81.500199 87.819115 108.775402 39.910988 27.232225 84.489276 40.907689 133.716444 40.907689 66.522066 0 123.072013-23.281239 169.642678-69.851904 46.570665-46.604434 69.851904-103.112426 69.851904-169.642678 0-9.30697-0.664126-16.672728-1.992377-21.952988 38.582737-10.686387 69.851904-31.642674 93.796246-62.868863 23.953551-31.259958 35.926234-66.853617 35.926234-106.773815 0-49.227168-16.962324-90.808192-50.89618-124.732839C872.294856 190.221622 830.713832 173.250088 781.486664 173.250088zM673.717172 137.332041 573.925375 35.547867 573.925375 476.609211c0 10.644431-5.322216 15.966647-15.966647 15.966647-10.644431 0-15.966647-5.322216-15.966647-15.966647l0-441.061344-99.791797 101.784174c-7.978718 7.978718-15.966647 7.978718-23.945365 0-7.986905-7.986905-7.986905-15.966647 0-23.953551l127.730103-127.730103 1.992377 0c1.328251-1.328251 2.665713-1.992377 3.993964-1.992377 1.328251-1.328251 3.320629-2.001587 5.986341-2.001587 2.656503 0 4.65809 0.672312 5.986341 2.001587 1.328251 0 3.329838 0.664126 5.986341 1.992377l127.730103 127.730103c7.986905 7.986905 7.986905 15.966647 0 23.953551C689.682795 145.310759 681.69589 145.310759 673.717172 137.332041z"  horiz-adv-x="1024" />

    
    <glyph glyph-name="download1" unicode="&#59074;" d="M763.416143 127.992q0 14.847536-10.847661 25.727196t-25.727196 10.847661-25.727196-10.847661-10.847661-25.727196 10.847661-25.727196 25.727196-10.847661 25.727196 10.847661 10.847661 25.727196zM909.715571 127.992q0 14.847536-10.847661 25.727196t-25.727196 10.847661-25.727196-10.847661-10.847661-25.727196 10.847661-25.727196 25.727196-10.847661 25.727196 10.847661 10.847661 25.727196zM982.833286 255.988l0-182.842286q0-22.847286-15.9995-38.846786t-38.846786-15.9995l-841.125715 0q-22.847286 0-38.846786 15.9995t-15.9995 38.846786l0 182.842286q0 22.847286 15.9995 38.846786t38.846786 15.9995l265.719696 0 77.149589-77.725571q33.150964-31.999 77.725571-31.999t77.725571 31.999l77.725571 77.725571 265.143714 0q22.847286 0 38.846786-15.9995t15.9995-38.846786zM797.143089 581.12984q9.727696-23.423268-7.99975-39.99875l-255.992-255.992q-10.271679-10.847661-25.727196-10.847661t-25.727196 10.847661l-255.992 255.992q-17.727446 16.575482-7.99975 39.99875 9.727696 22.271304 33.726946 22.271304l146.267429 0 0 255.992q0 14.847536 10.847661 25.727196t25.727196 10.847661l146.267429 0q14.847536 0 25.727196-10.847661t10.847661-25.727196l0-255.992 146.267429 0q23.99925 0 33.726946-22.271304z"  horiz-adv-x="1024" />

    
    <glyph glyph-name="zhouqifuwushiduan" unicode="&#58999;" d="M777.309016 316.35332l-285.768489 0L491.540528 634.722298l45.666062 0 0-277.400914 240.102427 0L777.309016 316.35332zM907.575896 370.035964c1.497097 30.607088-0.635473 61.319577-6.385431 91.604324-7.226588 38.052664-20.016893 74.721819-38.017872 108.992343-37.388539 71.171969-95.090728 128.253012-166.868495 165.070546-46.76407 23.988344-96.839559 38.10076-148.830677 41.946344-50.209542 3.714602-100.07116-2.25946-148.202367-17.752316-48.131207-15.493879-92.114954-39.72884-130.729413-72.034617-39.986713-33.45188-72.425519-74.125231-96.41591-120.888278l33.028231-16.944927c88.659249 172.817997 301.386188 241.294578 474.206232 152.643516 120.498398-61.807694 194.734146-188.784644 191.435007-322.606489l-69.391417 18.921955 47.121204-178.978301 131.456984 130.280182L907.575896 370.035964zM827.160401 203.965647C738.513432 31.148673 525.793656-37.328931 352.969519 51.320085c-120.497375 61.807694-194.736193 188.785667-191.438077 322.609559l69.390393-18.921955L183.798585 533.984966 52.343647 403.703761l72.406077-19.744693c-1.497097-30.606065 0.636496-61.318554 6.387477-91.605348 7.225565-38.052664 20.017916-74.721819 38.019918-108.99132 37.388539-71.172993 95.090728-128.254036 166.868495-165.071569 46.763047-23.987321 96.836489-38.098713 148.82863-41.944298 9.640568-0.712221 19.262716-1.067308 28.867468-1.067308 40.419572 0 80.444147 6.30152 119.331829 18.822694 48.131207 15.492856 92.114954 39.727817 130.727367 72.034617 39.983643 33.450856 72.421426 74.126254 96.407724 120.889301L827.160401 203.965647z"  horiz-adv-x="1024" />

    
    <glyph glyph-name="save1" unicode="&#58900;" d="M196.445424-103.726571 820.216097-103.726571 820.780595 231.020948 196.445424 231.020948ZM851.828004 713.667034C731.589857 838.985667 715.219405 856.485116 701.671444 856.485116l-87.497244 0 0-287.894157c0-17.499449-14.112459-32.176406-32.176406-32.176406l-417.728776 0c-17.499449 0-32.176406 14.112459-32.176406 32.176406L132.092613 856.485116l-52.498346 0c-26.531422 0-47.982359-21.450937-47.982359-47.982359l0-864.246968c0-26.531422 21.450937-47.982359 47.982359-47.982359l52.498346 0 0 370.875413c0 15.805954 14.112459 28.224917 32.176406 28.224917l688.687982 0c17.499449 0 32.176406-12.418964 32.176406-28.224917l0-370.875413 59.272326 0c26.531422 0 47.982359 21.450937 47.982359 47.982359L992.388093 565.768467C992.388093 578.751929 977.711136 587.783903 851.828004 713.667034zM549.821389 856.485116 196.445424 856.485116l0-256.282249 353.375965 0L549.821389 856.485116zM331.925028 657.781698c0-5.080485-3.951488-9.596472-9.596472-9.596472l-45.159868 0c-5.080485 0-9.596472 3.951488-9.596472 9.596472l0 141.124587c0 5.080485 3.951488 9.596472 9.596472 9.596472l45.159868 0c5.080485 0 9.596472-3.951488 9.596472-9.596472L331.925028 657.781698z"  horiz-adv-x="1024" />

    
    <glyph glyph-name="system" unicode="&#59046;" d="M508.472352 512.14786c67.34534 0 122.149982-54.804642 122.149982-122.149982s-54.804642-122.149982-122.149982-122.149982-122.149982 54.804642-122.149982 122.149982S441.127012 512.14786 508.472352 512.14786M508.472352 566.436652c-97.44853 0-176.438974-78.990444-176.438974-176.438974s78.990245-176.438974 176.438974-176.438974 176.438974 78.990444 176.438974 176.438974S605.920882 566.436652 508.472352 566.436652M944.657818 282.277112c7.75814 33.08237 11.71086 67.147074 11.71086 101.721833 0 34.574758-3.95272 68.639462-11.71086 101.721833-3.424478 14.6025-18.03817 23.663956-32.64047 20.239478-14.6025-3.424478-23.663956-18.03817-20.239478-32.64047 6.806385-29.023522 10.276233-58.927247 10.276233-89.32084s-3.469847-60.297318-10.276233-89.32084c-3.424478-14.6025 5.636978-29.215992 20.239478-32.64047C926.619648 258.613156 941.23334 267.674613 944.657818 282.277112L944.657818 282.277112zM912.571772 261.428847c1.717835 0 3.155461-0.025982 4.466372-0.082944 14.984441-0.651558 27.660046 10.967564 28.311405 25.952005 0.651558 14.984441-10.967564 27.659847-25.952005 28.311205-2.173127 0.094536-4.374234 0.134309-6.825572 0.134309-14.998631 0-27.157187-12.158756-27.157187-27.157387C885.414585 273.587604 897.573141 261.428847 912.571772 261.428847L912.571772 261.428847zM823.90289 98.055414c-11.086883 17.029254-17.073024 36.869003-17.073024 57.631526 0 58.400005 47.341902 105.741907 105.741907 105.741907 14.998431 0 27.157187 12.158756 27.157187 27.157387 0 14.998431-12.158756 27.157387-27.157187 27.157387-88.397267 0-160.056482-71.659415-160.056482-160.056482 0-31.370131 9.087639-61.488711 25.869461-87.265634 8.183252-12.569478 25.006645-16.125267 37.576123-7.941815C828.530352 68.662743 832.086142 85.486136 823.90289 98.055414L823.90289 98.055414zM640.117097-41.604096c67.575784 20.29564 129.145839 56.493897 179.853459 105.270227 10.809471 10.39775 11.143045 27.589694 0.745295 38.398966s-27.589694 11.143045-38.398966 0.745295c-44.525412-42.829562-98.556179-74.595224-157.823396-92.395556-14.364661-4.314275-22.512137-19.456608-18.197862-33.821269C610.609902-37.770895 625.752236-45.918371 640.117097-41.604096L640.117097-41.604096zM416.297246-27.156492c17.308065 36.78526 54.331963 60.762003 95.703913 60.762003 41.379345 0 78.426227-23.983939 95.731094-60.762003 6.385471-13.571399 22.563902-19.396649 36.1351-13.011178 13.571399 6.385671 19.396649 22.563902 13.011178 36.1351-26.182448 55.646072-82.263425 91.952656-144.877373 91.952656-62.609751 0-118.665745-36.302187-144.850192-91.952656-6.385471-13.571199-0.56042-29.74963 13.010979-36.1351C393.733345-46.553141 409.911576-40.72789 416.297246-27.156492L416.297246-27.156492zM205.250336 62.505118c50.488769-48.177935 111.614725-83.95228 178.654872-104.107015 14.363462-4.318272 29.507994 3.825007 33.826266 18.188468 4.318272 14.363462-3.825007 29.507994-18.188468 33.826266-58.809527 17.680413-112.457954 49.078525-156.796092 91.387239-10.851043 10.35438-28.041388 9.951653-38.395768-0.89939S194.399293 72.859497 205.250336 62.505118L205.250336 62.505118zM113.276295 261.428847c58.400005 0 105.741907-47.341902 105.741907-105.741907 0-21.122679-6.193001-41.291404-17.633844-58.497139-8.304769-12.489532-4.912469-29.346503 7.576863-37.651472 12.489532-8.304769 29.346503-4.912669 37.651472 7.576863 17.319657 26.04674 26.720084 56.661384 26.720084 88.571548 0 88.397067-71.659415 160.056482-160.056482 160.056482-14.998631 0-27.157387-12.158756-27.157387-27.157387C86.119107 273.587604 98.277864 261.428847 113.276295 261.428847L113.276295 261.428847zM107.301546 261.279748c1.830759 0.100532 3.809417 0.149099 5.974749 0.149099 14.998631 0 27.157387 12.158756 27.157387 27.157387 0 14.998431-12.158756 27.157387-27.157387 27.157387-3.11269 0-6.073482-0.072551-8.954729-0.231043-14.976046-0.822842-26.449267-13.630359-25.626425-28.606405C79.518183 271.930327 92.325499 260.456906 107.301546 261.279748L107.301546 261.279748zM79.370483 485.796926c-7.770332-33.163315-11.736842-67.251004-11.736842-101.797981 0-34.546977 3.966311-68.634866 11.736842-101.797981 3.42168-14.603099 18.033373-23.667354 32.636472-20.245873 14.603099 3.42168 23.667354 18.033573 20.245873 32.636472-6.821775 29.11526-10.304613 59.045967-10.304613 89.407382 0 30.361415 3.482639 60.292322 10.304613 89.407382 3.42168 14.603099-5.642774 29.214992-20.245873 32.636472C97.403856 509.464479 82.791963 500.400025 79.370483 485.796926L79.370483 485.796926zM113.276295 506.569042c-2.165532 0-4.14419 0.048567-5.974749 0.149099-14.976046 0.822842-27.783363-10.650579-28.606405-25.626425-0.822842-14.976046 10.650579-27.783363 25.626425-28.606405 2.881047-0.158293 5.842039-0.230843 8.954729-0.230843 14.998631 0 27.157387 12.158756 27.157387 27.157387C140.433682 494.410286 128.274926 506.569042 113.276295 506.569042L113.276295 506.569042zM201.384357 670.807888c11.442442-17.207933 17.633844-37.377258 17.633844-58.524121 0-58.393209-47.335107-105.714725-105.741907-105.714725-14.998631 0-27.157387-12.158756-27.157387-27.157387 0-14.998631 12.158756-27.157387 27.157387-27.157387 88.400664 0 160.056482 71.635631 160.056482 160.0293 0 31.932949-9.398228 62.548592-26.720084 88.59873-8.304769 12.489532-25.16194 15.881832-37.651472 7.576863S193.079588 683.29742 201.384357 670.807888L201.384357 670.807888zM383.905208 809.599787c-67.040147-20.154935-128.166103-55.92908-178.654872-104.107015-10.851043-10.35438-11.25357-27.544725-0.89919-38.395768 10.35438-10.851043 27.544725-11.25357 38.395768-0.89919 44.338139 42.308915 97.986565 73.706827 156.796092 91.387239 14.363462 4.318272 22.50674 19.462804 18.188468 33.826266C413.413202 805.774581 398.26867 813.91786 383.905208 809.599787L383.905208 809.599787zM607.732254 795.154381c-17.303468-36.775266-54.348552-60.762203-95.703913-60.762203-41.396133 0-78.42183 23.974146-95.731094 60.762203-6.385471 13.571399-22.563902 19.396649-36.1351 13.010979-13.571399-6.385471-19.396649-22.563902-13.010979-36.1351 26.186446-55.654466 82.245038-91.952656 144.877373-91.952656 62.591363 0 118.669742 36.310581 144.850192 91.952656 6.385471 13.571399 0.56022 29.74963-13.011178 36.1351C630.296155 814.55103 614.117724 808.72578 607.732254 795.154381L607.732254 795.154381zM819.96476 704.337155c-50.705222 48.744751-112.269881 84.939811-179.83767 105.261633-14.363062 4.319871-29.508393-3.821809-33.828264-18.184671s3.821809-29.508393 18.184871-33.828264c59.273013-17.826913 113.309576-49.596174 157.839185-92.40415 10.812469-10.394552 28.004213-10.055582 38.398766 0.756887S830.777229 693.942603 819.96476 704.337155L819.96476 704.337155zM912.571772 506.569042c-58.407 0-105.741907 47.321516-105.741907 105.714725 0 20.786707 5.984742 40.627055 17.073024 57.658508 8.183252 12.569478 4.627463 29.392872-7.942015 37.576123-12.569478 8.183252-29.392872 4.627463-37.576123-7.942015-16.78422-25.780321-25.869461-55.8999-25.869461-87.292815 0-88.393669 71.655817-160.0293 160.056482-160.0293 14.998431 0 27.157187 12.158756 27.157187 27.157387C939.72896 494.410286 927.570203 506.569042 912.571772 506.569042L912.571772 506.569042zM917.038144 506.651786c-1.310911-0.056961-2.748337-0.082944-4.466372-0.082944-14.998631 0-27.157187-12.158756-27.157187-27.157387 0-14.998631 12.158556-27.157387 27.157187-27.157387 2.451538 0 4.652646 0.039773 6.825572 0.134109 14.984441 0.651558 26.603563 13.326964 25.952005 28.311405C944.697991 495.684222 932.022585 507.303344 917.038144 506.651786L917.038144 506.651786z"  horiz-adv-x="1024" />

    
    <glyph glyph-name="tijianyuyue" unicode="&#58888;" d="M878.78808793 893.41950947L145.13640426 893.41950947c-30.56501173 0-55.21254791-24.64753618-55.21254792-55.17413119l0-908.41524874c0-30.45373581 24.64753618-55.24964032 55.21254792-55.24964031l733.65168367 0c30.56766164 0 55.28673142 24.79590321 55.28673142 55.24964031L934.07481935 838.24537828C934.07481935 868.77197329 909.35574828 893.41950947 878.78808793 893.41950947zM415.97979075 638.02223129l52.76448543 0 0 52.76713534c0 23.8884785 19.365921 43.25572382 43.25704943 43.25572382 23.89112711 0 43.25704942-19.365921 43.25704942-43.25572382l0-52.76713534 52.76448542 0c23.88980279 0 43.25704942-19.3645967 43.25704943-43.25307518 0-23.89245273-19.365921-43.25704942-43.25704943-43.25704943l-52.76448542 0 0-52.76316111c0-23.89245273-19.365921-43.25704942-43.25704942-43.25704942-23.88980279 0-43.25704942 19.3645967-43.25704943 43.25704942l0 52.76316111-52.76448543 0c-23.89112711 0-43.25704942 19.3645967-43.25704941 43.25704943C372.72274134 618.65763459 392.08866235 638.02223129 415.97979075 638.02223129zM747.44451191 382.64084874L511.49131118 71.85748460000002c-1.19223869-1.57242903-2.46263381-3.03623337-3.77277127-4.4390999-1.99501163-5.67770246-5.1517937-11.04542384-9.54055417-15.71502275-16.8423507-17.8941695-45.00036657-18.77775013-62.9091074-1.93275081L279.26716777 196.45299376000003c-17.91006644 16.84500061-18.77642582 45.00036657-1.93539945 62.9077831 16.82645377 17.8941695 44.99904097 18.7605289 62.89188615 1.93275082l121.49966363-114.22833536 217.90536305 287.05914962c16.50190007 21.76364539 45.10766697 27.92751557 63.82183196 13.71338825C762.19647068 433.63022444 763.94641199 404.42038975 747.44451191 382.64084874z"  horiz-adv-x="1024" />

    
    <glyph glyph-name="nav" unicode="&#58923;" d="M888.838 576.225l-751.1 0c-23.944 0-43.339 19.553-43.339 43.646l0 40.012c0 24.093 19.395 43.645 43.339 43.645l751.1 0c23.923 0 43.334-19.554 43.334-43.645l0-40.012c-0.001-24.093-19.411-43.646-43.333-43.646l0 0zM888.838 308.491l-751.1 0c-23.944 0-43.339 19.533-43.339 43.64l0 39.998c0 24.115 19.395 43.647 43.339 43.647l751.1 0c23.923 0 43.334-19.533 43.334-43.647l0-39.998c-0.001-24.107-19.411-43.64-43.333-43.64l0 0zM888.838 19.83l-751.1 0c-23.944 0-43.339 19.532-43.339 43.627l0 40.017c0 24.093 19.395 43.641 43.339 43.641l751.1 0c23.923 0 43.334-19.548 43.334-43.641l0-40.017c-0.001-24.094-19.411-43.627-43.333-43.627l0 0z"  horiz-adv-x="1024" />

    
    <glyph glyph-name="organization" unicode="&#58987;" d="M932.24 144v180c0 33.41973333-26.82026667 60-60 60-0.12053333 0-0.12053333 0-0.24 0s-0.12053333 0-0.24 0h-299.52v120h120v360h-360v-360h120v-120h-299.64053333c-0.05973333 0-0.11946667 0-0.18026667 0s-0.18026667 0-0.24 0c-33.36 0-60-26.82026667-60-60v-180h-60v-240h240v240h-60v120h240v-120h-60v-240h240v240h-60v120h240v-120h-60v-240h240v240h-59.94026667z"  horiz-adv-x="1025" />

    
    <glyph glyph-name="user_role" unicode="&#59189;" d="M427.97948693 173.94871787c0 56.7138464 18.90461547 121.829744 48.3117952 172.2420512 35.70871787 63.01538453 75.61846187 88.22153813 107.1261536 134.43282026 52.51282027 77.71897387 63.01538453 189.0461536 29.40717974 273.06666667C579.21641067 839.81128213 499.39692267 890.22358933 406.97435947 888.12307733s-168.04102613-58.81435947-197.44820587-144.93538453c-33.6082048-94.52307733-18.90461547-207.95076907 56.7138464-279.36820587 31.5076928-29.40717973 60.91487147-75.61846187 44.11076907-119.72923093-14.70358933-42.010256-65.1158976-60.91487147-100.82461547-77.71897387-81.92-35.70871787-180.6441024-86.12102613-197.4482048-182.74461546C-4.7261536 3.80717973000003 49.88717973-78.11282027000004 136.0082048-78.11282027000004h357.08717973c16.8041024 0 27.30666667 21.00512853 16.8041024 33.6082048C457.38666667 16.410256000000004 427.97948693 94.12923092999995 427.97948693 173.94871787z m336.0820512 252.06153813c-138.6338464 0-252.06153813-113.4276928-252.06153813-252.06153813s113.4276928-252.06153813 252.06153813-252.06153814 252.06153813 113.4276928 252.0615392 252.06153814-113.4276928 252.06153813-252.0615392 252.06153813z m44.11076907-275.16717867c-6.30153813 0-14.70358933 2.10051307-21.00512747 4.20102507l-96.6235904-96.62358933c-6.30153813-6.30153813-14.70358933-8.4020512-21.00512746-8.4020512-8.4020512 0-14.70358933 2.10051307-21.00512854 8.4020512-10.50256427 10.50256427-10.50256427 29.40717973 0 42.010256l96.62358934 96.6235904c-2.10051307 6.30153813-4.20102613 12.60307733-4.20102507 21.00512746-4.20102613 44.11076907 31.5076928 84.02051307 75.61846187 84.02051307 6.30153813 0 14.70358933-2.10051307 21.00512746-4.20102613 4.20102613 0 4.20102613-4.20102613 2.10051307-6.30153814l-42.010256-44.11076906c-4.20102613-2.10051307-4.20102613-8.4020512 0-10.50256427l29.40717867-29.40717973c4.20102613-4.20102613 8.4020512-4.20102613 12.60307733 0l42.010256 42.01025706c2.10051307 2.10051307 6.30153813 2.10051307 6.3015392-2.10051306 2.10051307-6.30153813 4.20102613-14.70358933 4.20102507-21.00512854 0-44.11076907-37.80923093-79.81948693-84.02051307-75.6184608z"  horiz-adv-x="1024" />

    
    <glyph glyph-name="jianchaxiang" unicode="&#58970;" d="M947.776 421.504s-180.224-115.2-313.92-306.048L511.36 223.936l-53.312-49.664 211.072-236.288s97.024 262.4 289.984 449.92l-11.328 33.6zM65.088 831.488h124.16v-107.904h-124.16V831.488z m197.632-0.256h496.704V723.84H262.72V831.232z m-197.632-320h124.16v-107.904h-124.16V511.232z m197.632-0.192h496.704v-107.456H262.72V511.04z m-197.632-320.128h124.16v-107.904h-124.16v107.904z m197.632-0.192h142.848v-107.456H262.72V190.72z"  horiz-adv-x="1024" />

    
    <glyph glyph-name="yuyuexinxi1" unicode="&#58911;" d="M511.89333333-92.05333332999999C248.96-92.05333332999999 35.84 121.06666667000002 35.84 384S248.96 860.05333333 511.89333333 860.05333333 987.94666667 646.93333333 987.94666667 384c-0.10666667-262.93333333-213.22666667-476.05333333-476.05333334-476.05333333z m25.06666667 801.70666666h-50.24v-345.38666666l-3.09333333-5.22666667 303.78666666-175.36 25.06666667 43.41333333L536.96 386.13333333V709.65333333z"  horiz-adv-x="1024" />

    
    <glyph glyph-name="role" unicode="&#58908;" d="M146.285714 896h877.714286a146.285714 146.285714 0 0 0 146.285714-146.285714v-731.428572a146.285714 146.285714 0 0 0-146.285714-146.285714H146.285714a146.285714 146.285714 0 0 0-146.285714 146.285714V749.714286a146.285714 146.285714 0 0 0 146.285714 146.285714z m219.428572-585.142857a146.285714 146.285714 0 1 1 0 292.571428 146.285714 146.285714 0 0 1 0-292.571428z m-206.994286-146.285714h413.988571a219.501714 219.501714 0 0 1-413.988571 0zM731.428571 530.285714v-73.142857h292.571429V530.285714h-292.571429z m0-219.428571v-73.142857h292.571429V310.857143h-292.571429z"  horiz-adv-x="1170" />

    
    <glyph glyph-name="yuyueguahao" unicode="&#58909;" d="M751.733 79.842c-16.551 0-29.967-13.416-29.967-29.967s13.416-29.967 29.967-29.967 29.967 13.416 29.967 29.967-13.416 29.967-29.967 29.967z m124.911 562.359c-9.454 13.099-19.54 25.708-30.318 37.695l-21.166-21.321c9.799-10.989 18.993-22.515 27.607-34.495l23.877 18.121zM961.5 379.508c0 76.33-19.087 148.179-52.654 211.137l-25.752-15.451c30.878-58.435 48.439-124.996 48.439-195.687 0-101.397-36.039-194.335-95.917-266.863-19.132 25.523-49.532 42.113-83.883 42.113-57.926 0-104.883-46.957-104.883-104.883s46.957-104.883 104.883-104.883c57.925 0 104.883 46.957 104.883 104.883 0 12.048-2.133 23.572-5.871 34.347C919.662 163.214 961.5 266.445 961.5 379.508z m-209.767-404.55c-41.375 0-74.917 33.542-74.917 74.917s33.542 74.917 74.917 74.917 74.917-33.542 74.917-74.917-33.541-74.917-74.917-74.917z m0 554.384c0 66.2-53.666 119.867-119.867 119.867h-14.983c-16.551 0-29.967-13.416-29.967-29.967s13.416-29.967 29.967-29.967c16.096 0 29.123 12.718 29.833 28.639 42.567-7.091 75.05-43.992 75.05-88.572 0-16.86-4.767-32.547-12.863-46.011L589.109 243.562c-15.701-26.234-44.311-43.854-77.109-43.854s-61.408 17.62-77.109 43.854l-119.795 239.77c-8.096 13.464-12.863 29.15-12.863 46.01 0 44.581 32.483 81.481 75.05 88.572 0.71-15.921 13.737-28.639 29.833-28.639 16.551 0 29.967 13.416 29.967 29.967s-13.416 29.967-29.967 29.967h-14.983c-66.201 0-119.867-53.666-119.867-119.867 0-21.67 5.87-41.919 15.931-59.46l119.826-239.753c18.309-31.932 50.851-54.591 88.993-59.367v-45.97c0-105.82-55.719-134.85-119.867-134.85s-129.231 63.679-143.2 75.714C147.237 142.487 92.467 254.537 92.467 379.508 92.467 611.21 280.298 799.042 512 799.042c108.678 0 207.701-41.326 282.221-109.116l21.11 21.264C735.378 784.349 628.913 829.008 512 829.008c-248.251 0-449.5-201.249-449.5-449.5 0-132.9 57.762-252.201 149.485-334.442 22.588-20.253 89.78-85.092 165.165-85.092s149.833 37.458 149.833 164.817v45.97c38.141 4.776 70.682 27.434 88.992 59.367l119.827 239.753c10.061 17.541 15.931 37.79 15.931 59.461z"  horiz-adv-x="1024" />

    
    <glyph glyph-name="tijianyuyuedengji" unicode="&#58932;" d="M28.444444 387.470222a219.022222 219.022222 0 0 0 63.715556 154.282667 228.295111 228.295111 0 0 1 24.462222 30.264889 1464.547556 1464.547556 0 0 0 193.991111 196.664889c21.048889 18.147556 39.253333 36.295111 60.302223 51.2a229.546667 229.546667 0 0 0 300.373333-18.147556c21.048889-18.147556 42.666667-36.295111 66.56-54.442667a1273.344 1273.344 0 0 0 188.302222-196.664888 446.065778 446.065778 0 0 0 30.151111-39.310223 222.321778 222.321778 0 0 0 36.408889-163.384889 218.851556 218.851556 0 0 0-60.871111-124.074666l-54.613333-63.544889a1208.32 1208.32 0 0 0-124.017778-127.089778c-24.462222-21.162667-48.355556-39.310222-72.817778-60.529778a409.941333 409.941333 0 0 0-42.666667-33.28 231.424 231.424 0 0 0-166.684444-36.295111 219.192889 219.192889 0 0 0-124.017778 60.529778 241.607111 241.607111 0 0 1-30.72 24.177778 1231.985778 1231.985778 0 0 0-169.528889 163.384889c-18.204444 24.177778-39.253333 45.511111-57.457777 69.575111a431.104 431.104 0 0 1-24.462223 39.310222A221.866667 221.866667 0 0 0 28.444444 387.185778z m403.342223-87.722666v-190.634667a30.094222 30.094222 0 0 1 32.995555-33.28h97.28a24.177778 24.177778 0 0 1 15.36 6.030222 62.236444 62.236444 0 0 1 18.204445 45.511111v166.286222c0 6.030222 0 6.030222 5.688889 6.030223h191.146666a31.744 31.744 0 0 1 30.151111 27.249777V426.780444a44.942222 44.942222 0 0 1-5.688889 18.147556 35.783111 35.783111 0 0 1-30.72 12.117333h-190.577777V647.68a32.312889 32.312889 0 0 1-36.408889 36.295111h-91.022222a38.570667 38.570667 0 0 1-18.204445-3.015111 33.621333 33.621333 0 0 1-18.204444-30.264889v-190.634667H240.64a30.549333 30.549333 0 0 1-33.564444-33.28V332.8a45.511111 45.511111 0 0 1 6.257777-21.162667 35.328 35.328 0 0 1 30.151111-12.117333h188.302223z m0 0"  horiz-adv-x="1024" />

    
    <glyph glyph-name="wodetijian" unicode="&#58968;" d="M436.96 210.752c0.544 0 1.056 0 1.616-0.032h11.376v0.032c19.072 0 34.928 14.64 37.76 33.648l0.048 0.464 0.368 3.92 22.176 256.224c0 33.84-26.368 61.264-58.944 61.264H153.52c-32.576 0-58.992-27.408-58.992-61.264l22.08-254.304 0.624-7.68c3.376-18.336 18.896-32.256 37.568-32.256v-0.048h11.536c0.528 0.048 1.104 0.048 1.632 0.048 0.576 0 1.088 0 1.6-0.048 12.144-0.816 21.968-10.352 23.616-22.656 0.208-1.152 0.24-2.32 0.304-3.504l20.448-266.432 0.464-6c2.88-18.96 18.688-33.472 37.728-33.472h100.752c18.736 0 34.352 14.096 37.552 32.624l0.592 7.712 20.432 266c0 0.88 0.112 1.712 0.224 2.56 1.504 12.528 11.424 22.336 23.616 23.152 0.576 0.048 1.104 0.048 1.664 0.048z m-134.528 407.392c72.032 0 130.496 60.72 130.496 135.584 0 74.896-58.448 135.616-130.496 135.616-72.016 0-130.416-60.72-130.416-135.616 0-74.864 58.4-135.584 130.416-135.584z m356.592-22.88c-46.512 0-90.32-11.76-128.592-32.48 0 0 17.504-17.824 13.84-55.28a217.024 217.024 0 0 0 116.432 33.664c120.432 0 218.048-97.6 218.048-218.016 0-120.4-97.616-218-218.048-218a217.6 217.6 0 0 0-170.272 81.84s-5.696-13.872-55.28-13.872c48.64-71.664 130.768-118.72 223.856-118.72 149.392 0 270.432 121.072 270.432 270.416 0.032 149.376-121.024 270.448-270.416 270.448z m30.432-131.84h-37.184a33.776 33.776 0 0 1-33.776-33.808v-57.456h-54.096a33.792 33.792 0 0 1-33.792-33.776v-37.2c0-18.672 15.12-33.824 33.792-33.824h54.096v-50.688c0-18.656 15.104-33.808 33.776-33.808h37.184a33.792 33.792 0 0 1 33.792 33.808V267.36h54.096a33.792 33.792 0 0 1 33.792 33.824v37.2a33.776 33.776 0 0 1-33.792 33.776h-54.096v57.456a33.76 33.76 0 0 1-33.792 33.808z"  horiz-adv-x="1024" />

    
    <glyph glyph-name="tijianxiangmu" unicode="&#58973;" d="M794.096-110.48H229.904c-124.864 0-226.432 101.6-226.432 226.416V508.352c0 124.864 101.584 226.448 226.432 226.448h564.192c124.864 0 226.432-101.6 226.432-226.448v-392.384c0.032-124.864-101.568-226.448-226.432-226.448zM229.904 671.184c-89.776 0-162.832-73.056-162.832-162.848v-392.4c0-89.776 73.056-162.816 162.832-162.816h564.192c89.776 0 162.832 73.056 162.832 162.816V508.352c0 89.792-73.04 162.848-162.832 162.848l-564.192-0.016zM67.712 523.2H4.096c0 56.176-0.624 132.368-0.624 132.368 0 123.04 99.888 222.912 222.656 222.912h149.76c135.376 0 213.008-73.008 213.008-200.336H525.28c0 92-48.864 136.72-149.392 136.72h-149.76c-87.68 0-159.04-71.344-159.04-159.04-0.016 0 0.624-76.336 0.624-132.624zM506.464 3.824l-7.2 5.056c-185.52 130.272-280.128 248.64-288.944 362.16l-0.08 33.44c8.464 106.064 77.92 160.368 138.992 166.288 84 7.792 122.064-21.728 157.216-61.664 35.232 40.016 73.648 69.456 157.232 61.664 60.976-5.984 130.512-60.224 139.008-165.344l0.08-33.44c-9.008-114.352-103.504-232.816-289.136-363.088l-7.168-5.072z m-130.288 543.344c-7.6 0-15.728-0.432-24.464-1.28-50.976-4.96-109.136-51.664-116.4-142.432l0.064-31.472c8.128-103.248 96.832-214 271.168-337.52 174.32 123.616 263.008 234.352 271.232 338.544l-0.096 31.488c-7.264 89.712-65.424 136.432-116.4 141.392-72.72 7.264-103.008-13.776-145.152-64.064l-9.584-11.456-9.664 11.456c-37.136 44.304-64.656 65.344-120.704 65.344zM506.48-15.744l-16.416 11.568c-189.776 133.248-286.496 255.6-295.68 374l-0.128 34.64c9.232 116.32 86 175.728 153.456 182.24a298.16 298.16 0 0 0 27.344 1.328c61.52 0 98.544-21.648 131.408-55.344 32.864 33.696 69.92 55.36 131.472 55.36 8.656 0 17.808-0.448 27.232-1.328 67.488-6.624 144.256-65.776 153.472-180l0.128-34.688c-9.424-120.432-106.224-243.072-295.952-376.224l-16.336-11.552z m-130.304 546.912c-7.008 0-14.512-0.4-22.928-1.216-44.544-4.336-95.456-46.16-102-127.776l0.128-30.16c7.568-95.584 91.088-200.016 255.168-317.904 164.064 117.984 247.616 222.784 255.28 320.144l-0.144 30.192c-6.496 79.664-57.424 121.184-101.952 125.52-66.464 6.576-91.44-10.816-131.344-58.416l-21.792-26.064-21.952 26.032c-34.576 41.248-58.432 59.648-108.464 59.648zM484.736 119.696l-103.072 206.144-32.592-65.184-226.512 2.608 0.368 32 206.464-2.384 52.272 104.528 99.824-199.648 99.744 249.456 98.704-151.984 209.84-2.352-0.352-32-226.992 2.544-74.416 114.592z"  horiz-adv-x="1024" />

    
    <glyph glyph-name="notice" unicode="&#59181;" d="M146.285714 621.714286h731.428572a18.285714 18.285714 0 0 0 18.285714-18.285715v-548.571428a18.285714 18.285714 0 0 0-18.285714-18.285714H146.285714a18.285714 18.285714 0 0 0-18.285714 18.285714V603.428571a18.285714 18.285714 0 0 0 18.285714 18.285715z m18.285715-36.571429v-512h694.857142v512h-694.857142z m128-146.285714a18.285714 18.285714 0 1 0 0 36.571428h438.857142a18.285714 18.285714 0 1 0 0-36.571428H292.571429z m0-146.285714a18.285714 18.285714 0 1 0 0 36.571428h219.428571a18.285714 18.285714 0 1 0 0-36.571428H292.571429z m10.130285 295.643428a18.285714 18.285714 0 0 0-20.260571 30.427429l219.428571 146.285714a18.285714 18.285714 0 0 0 20.260572 0l219.428571-146.285714a18.285714 18.285714 0 0 0-20.260571-30.427429L512 727.734857 302.701714 588.214857z"  horiz-adv-x="1024" />

    
    <glyph glyph-name="ic_temp" unicode="&#58901;" d="M85.344 896v-1024h853.344V896H85.344z m768-938.656H170.688V810.688h682.656v-853.344zM256 725.344h512v-170.656H256V725.344zM426.656 469.344H768V384H426.656v85.344zM426.656 298.656H768v-85.344H426.656v85.344zM426.656 128H768v-85.344H426.656V128zM256 469.344h85.344v-426.656H256V469.344z"  horiz-adv-x="1024" />

    
    <glyph glyph-name="eye" unicode="&#59279;" d="M942.2 409.8C847.4 609.5 704.1 710 512 710c-192.2 0-335.4-100.5-430.2-300.3-7.7-16.2-7.7-35.2 0-51.5C176.6 158.5 319.9 58 512 58c192.2 0 335.4 100.5 430.2 300.3 7.7 16.2 7.7 35 0 51.5zM512 130c-161.3 0-279.4 81.8-362.7 254C232.6 556.2 350.7 638 512 638c161.3 0 279.4-81.8 362.7-254C791.5 211.8 673.4 130 512 130zM508 560c-97.2 0-176-78.8-176-176s78.8-176 176-176 176 78.8 176 176-78.8 176-176 176z m0-288c-61.9 0-112 50.1-112 112s50.1 112 112 112 112-50.1 112-112-50.1-112-112-112z"  horiz-adv-x="1024" />

    
    <glyph glyph-name="unlock" unicode="&#59337;" d="M832 432H332V656c0 30.9 25.1 56 56 56h248c30.9 0 56-25.1 56-56v-68c0-4.4 3.6-8 8-8h56c4.4 0 8 3.6 8 8v68c0 70.7-57.3 128-128 128H388c-70.7 0-128-57.3-128-128v-224h-68c-17.7 0-32-14.3-32-32v-384c0-17.7 14.3-32 32-32h640c17.7 0 32 14.3 32 32V400c0 17.7-14.3 32-32 32z m-40-376H232V360h560v-304zM484 195v-53c0-4.4 3.6-8 8-8h40c4.4 0 8 3.6 8 8v53c12.1 8.7 20 22.9 20 39 0 26.5-21.5 48-48 48s-48-21.5-48-48c0-16.1 7.9-30.3 20-39z"  horiz-adv-x="1024" />

    
    <glyph glyph-name="lock1" unicode="&#59338;" d="M832 432h-68V656c0 70.7-57.3 128-128 128H388c-70.7 0-128-57.3-128-128v-224h-68c-17.7 0-32-14.3-32-32v-384c0-17.7 14.3-32 32-32h640c17.7 0 32 14.3 32 32V400c0 17.7-14.3 32-32 32zM332 656c0 30.9 25.1 56 56 56h248c30.9 0 56-25.1 56-56v-224H332V656z m460-600H232V360h560v-304zM484 195v-53c0-4.4 3.6-8 8-8h40c4.4 0 8 3.6 8 8v53c12.1 8.7 20 22.9 20 39 0 26.5-21.5 48-48 48s-48-21.5-48-48c0-16.1 7.9-30.3 20-39z"  horiz-adv-x="1024" />

    
    <glyph glyph-name="eye-fill" unicode="&#59497;" d="M508 384m-112 0a112 112 0 1 1 224 0 112 112 0 1 1-224 0ZM942.2 409.8C847.4 609.5 704.1 710 512 710c-192.2 0-335.4-100.5-430.2-300.3-7.7-16.2-7.7-35.2 0-51.5C176.6 158.5 319.9 58 512 58c192.2 0 335.4 100.5 430.2 300.3 7.7 16.2 7.7 35 0 51.5zM508 208c-97.2 0-176 78.8-176 176s78.8 176 176 176 176-78.8 176-176-78.8-176-176-176z"  horiz-adv-x="1024" />

    
    <glyph glyph-name="lock-fill" unicode="&#59498;" d="M832 432h-68V656c0 70.7-57.3 128-128 128H388c-70.7 0-128-57.3-128-128v-224h-68c-17.7 0-32-14.3-32-32v-384c0-17.7 14.3-32 32-32h640c17.7 0 32 14.3 32 32V400c0 17.7-14.3 32-32 32zM540 195v-53c0-4.4-3.6-8-8-8h-40c-4.4 0-8 3.6-8 8v53c-12.1 8.7-20 22.9-20 39 0 26.5 21.5 48 48 48s48-21.5 48-48c0-16.1-7.9-30.3-20-39z m152 237H332V656c0 30.9 25.1 56 56 56h248c30.9 0 56-25.1 56-56v-224z"  horiz-adv-x="1024" />

    
    <glyph glyph-name="unlock-fill" unicode="&#59499;" d="M832 432H332V656c0 30.9 25.1 56 56 56h248c30.9 0 56-25.1 56-56v-68c0-4.4 3.6-8 8-8h56c4.4 0 8 3.6 8 8v68c0 70.7-57.3 128-128 128H388c-70.7 0-128-57.3-128-128v-224h-68c-17.7 0-32-14.3-32-32v-384c0-17.7 14.3-32 32-32h640c17.7 0 32 14.3 32 32V400c0 17.7-14.3 32-32 32zM540 195v-53c0-4.4-3.6-8-8-8h-40c-4.4 0-8 3.6-8 8v53c-12.1 8.7-20 22.9-20 39 0 26.5 21.5 48 48 48s48-21.5 48-48c0-16.1-7.9-30.3-20-39z"  horiz-adv-x="1024" />

    
    <glyph glyph-name="-tijianguanli" unicode="&#59073;" d="M696.48173638 340.91776631000005L665.32996741 399.90728628l-98.09493206-188.236221a27.17494739 27.17494739 0 0 0-48.38466245 0L394.24329703 456.90839547l-66.2803595-115.32782555a27.17494739 27.17494739 0 0 0-23.86092943-13.9188755h-45.07064445a868.93551312 868.93551312 0 0 1 254.5165805-202.81790009 878.21476347 878.21476347 0 0 1 253.85377691 202.81790009h-47.72185885a27.17494739 27.17494739 0 0 0-23.19812583 13.25607189zM846.27534886 826.0899979h-662.80359506A124.60707587 124.60707587 0 0 1 55.55065996 701.48292204v-662.80359507a124.60707587 124.60707587 0 0 1 124.60707587-124.60707587h662.80359506a124.60707587 124.60707587 0 0 1 124.60707587 124.60707587v662.80359507a124.60707587 124.60707587 0 0 1-121.2930579 124.60707586zM151.65718125 425.0938229a227.3416331 227.3416331 0 0 0-4.63962518 46.39625165 205.46911447 205.46911447 0 0 0 365.86758447 123.28146868 205.46911447 205.46911447 0 0 0 162.3868808 78.21082422 202.81790009 202.81790009 0 0 0 198.84107852-155.09604124l3.97682157-15.24448269h-55.67550198v9.27925033a151.11921968 151.11921968 0 0 1-271.08667038 39.1054121 43.74503728 43.74503728 0 0 0-70.91998468 0 150.45641609 150.45641609 0 0 1-127.25829025 66.28035951A149.13080889 149.13080889 0 0 1 201.36745087 471.49007455a172.32893472 172.32893472 0 0 1 5.30242877-41.0938229l3.97682155-15.24448268h-57.00110917z m702.57181076-60.97793075c-81.52484219-170.34052393-324.77376158-292.29638542-335.37861911-296.93601058h-10.60485752c-10.60485751 5.30242877-253.85377691 125.93268306-335.3786191 296.93601058l-9.27925032 19.88410785h126.59548665l80.8620386 143.82838013a27.17494739 27.17494739 0 0 0 23.86092942 13.9188755 27.17494739 27.17494739 0 0 0 23.86092942-14.5816791l123.28146868-243.24891938 93.45530691 184.92220302a27.17494739 27.17494739 0 0 0 47.72185884 0l52.36148401-84.83886017H864.17104593z m25.18653662 92.12969971a237.94649063 237.94649063 0 0 0-3.97682158-30.48896537v-9.94205392h-56.33830559l3.31401799 15.24448268a204.14350729 204.14350729 0 0 1 4.63962516 27.1749474v11.26766112h54.34989479z"  horiz-adv-x="1024" />

    
    <glyph glyph-name="pdf" unicode="&#58938;" d="M818 643.9c-5.2 5.2-10.9 10.7-17.2 16.4-18.7 17.2-36.1 33.3-52.2 48.3-1.6 1-2.9 2.1-3.9 3.1-23.4 21.3-41.9 37.7-55.4 49.1-8.3 6.8-14.8 11.7-19.5 14.8-3.1 2.6-6 4.4-8.6 5.5-3.1 1.6-6.5 2.3-10.1 2.3-5.2 0-9.7-1.9-13.6-5.8-3.9-3.9-5.8-8.7-5.8-14.4v-179.4H811l-20.3 19.5v-598.1l20.3 19.5H291.7c-16.1 0-30 5.8-41.7 17.5-11.7 11.7-17.5 25.9-17.5 42.5V763.2l-20.3-20.3h359.5c5.2 0 9.7 1.9 13.6 5.8 3.9 3.9 5.8 8.6 5.8 14 0 5.5-1.9 10.1-5.8 14-3.9 3.9-8.4 5.8-13.6 5.8H191.9v-697.9c0-27.6 9.7-51.1 29.2-70.6 19.5-19.5 43-29.2 70.6-29.2h539.6V623.6H651.2l20.3-20.3V763.2c0-5.2-1.9-9.7-5.8-13.6-3.9-3.9-8.4-5.8-13.6-5.8-2.6 0-4.9 0.5-7 1.6l1.6-1.6c3.6-2.6 9.4-7 17.2-13.3 13-11.4 30.9-27.6 53.8-48.3 1.6-1 2.9-2.1 3.9-3.1 16.1-14.6 33.5-30.7 52.2-48.3 6.2-5.2 12-10.4 17.2-15.6 3.1-2.6 5.2-4.7 6.2-6.2 4.2-3.6 9-5.5 14.4-5.5 5.5 0 10.1 2.1 14 6.2 3.9 4.2 5.7 9 5.5 14.4-0.3 5.5-2.2 10-5.8 13.6-2.3 1.5-4.7 3.6-7.3 6.2zM191.9 424h-79.5v-339.2h798.5V424h-719z m82.6-194.9v-84.2h-39V371.8h86.6c25.5 0 45.6-6.6 60.4-19.9 14.8-13.3 22.2-30.8 22.2-52.6s-7.3-39-21.8-51.5c-14.6-12.5-35.1-18.7-61.6-18.7h-46.8z m0 31.9h47.6c14 0 24.7 3.2 32 9.7 7.3 6.5 10.9 16 10.9 28.5s-3.6 22.4-10.9 29.6c-7.3 7.3-17.7 10.9-31.2 10.9h-48.3V261zM439 144.8v227h67.1c20.3 0 38.2-4.4 53.8-13.3s27.7-21.6 36.3-38.2c8.6-16.6 12.9-35.4 12.9-56.1v-11.7c0-21.3-4.3-40.2-12.9-56.5-8.6-16.4-20.8-29-36.6-37.8-15.9-8.8-34.2-13.3-55-13.3H439z m39.8 195V176h25.7c20.8 0 36.7 6.5 47.6 19.5 10.9 13 16.6 31.7 17.2 56.1v12.5c0 24.4-5.3 43.1-16 56.1s-26.4 19.5-47.2 19.5h-27.3zM779 240.7h-91.2v-95.9H648v227h144.3v-32H687.8v-67.1H779v-32z m0 0"  horiz-adv-x="1024" />

    
    <glyph glyph-name="word" unicode="&#58940;" d="M909.8 666.6c2 20.6-14.1 36.7-35.1 34.7-96.9 1.6-194.1 0-291.4 0.4v72.6h-53.7c-139.2-24.6-278.5-48.4-417.7-72.6v-635.3c138.4-24.2 276.9-47.2 415.3-72.7h56.9v72.7c90.8 0 181.6 0 272.4-0.4 15.3 0.8 32.7-0.4 46 8.9 10.5 16.1 7.7 36.7 8.9 54.9-1.6 179.2 0.4 358-1.6 536.8zM415 260.6c-15.3-7.7-37.9 0.4-55.7-0.8-12.1 60.1-26.2 119.9-36.7 180-10.5-58.5-24.6-116.6-36.7-175.2-17.4 0.8-35.1 2-52.5 3.2-15.3 79.9-32.7 159-46.8 239.3 15.3 0.8 31.1 1.2 46.8 2 9.3-57.7 19.8-115.4 28.3-173.1l38.7 178c17.4 0.8 34.3 1.6 51.7 2.8 12.1-61.4 24.6-122.3 37.5-183.6 10.5 63 21.8 125.9 32.7 188.9 18.2 0.8 36.3 1.6 54.5 2.8-21.4-87.9-39.6-176.7-61.8-264.3z m468.2-167.1H583.7v72.7h236.1v36.3H583.7v45.6h236.1v36.3H583.7V330h236.1v36.3H583.7v45.6h236.1v36.3H583.7V493h236.1v36.3H583.7v45.2h236.1v36.3H583.7v63.8h299.5v-581.1z m0 0"  horiz-adv-x="1024" />

    
    <glyph glyph-name="zip1" unicode="&#58941;" d="M486.1 318h51.8v-51.8h-51.8zM818.8 784H205.2c-51.5 0-93.2-41.7-93.2-93.2v-613.6c0-51.5 41.7-93.2 93.2-93.2h613.6c51.5 0 93.2 41.7 93.2 93.2V690.8c0 51.5-41.7 93.2-93.2 93.2z m-255-543.7H460.2V395.7h103.6v-155.4z m0 388.4H512v-51.8h51.8v-51.8H512v-51.8h51.8v-51.8H512v51.8h-51.8v51.8H512v51.8h-51.8v51.8H512v51.8h-51.8v51.8H512v-51.8h51.8v-51.8z m0 0"  horiz-adv-x="1024" />

    
    <glyph glyph-name="zip2" unicode="&#58880;" d="M619.360855-37.398654c1.37296-0.063998 2.681921-0.191994 4.054881-0.191995H932.697675a65.668076 65.668076 0 0 1 65.604078 65.604078V745.000424a65.668076 65.668076 0 0 1-65.604078 65.604078H623.415736c-1.37296 0-2.71392-0.127996-4.054881-0.190995V896L15.70554 815.426361v-858.378853l603.655315-82.652578v88.207416z m0 810.077267c1.340961 0.191994 2.681921 0.414988 4.054881 0.414988H932.697675c15.515545 0 28.125176-12.609631 28.125176-28.125176v-716.986995a28.157175 28.157175 0 0 0-28.125176-28.125176H623.415736c-1.37296 0-2.71392 0.223993-4.054881 0.414988V772.646614zM248.337724 290.558738l-143.914783 3.670892v23.401314l86.866455 133.251097v1.180965l-78.917688-1.307962v36.041944l134.561058 3.511897v-26.082235l-87.504437-133.731082v-1.148967l88.909395-1.404959v-37.350905z m72.403879-1.851946l-44.757688 1.149966V491.041864l44.758688 1.149966v-203.486038z m171.081988 92.963276c-16.664512-15.35555-41.149794-22.059354-69.338968-21.867359a113.809666 113.809666 0 0 0-16.121528 1.052969v-74.351822l-46.09865 1.181966V490.467881c14.237583 2.809918 34.381993 5.171848 63.178149 5.938826 29.497136 0.765978 50.791512-4.309874 65.188091-15.292552 13.887593-10.439694 23.305317-27.965181 23.305317-48.843569s-7.119791-38.628868-20.079412-50.600518z m-65.923069 79.172681a80.129652 80.129652 0 0 1-19.537427-2.202936v-61.390201c4.021882-0.925973 8.969737-1.212964 15.833536-1.212965 25.380256 0.031999 41.214793 12.897622 41.214792 34.47799 0 19.378432-13.631601 30.7111-37.478901 30.296113zM732.213548 757.06807h73.521846v-30.329111H732.213548v30.329111z m-73.553845-45.39667h73.521846v-30.35911h-73.521846v30.35911z m73.553845-49.674544h73.521846v-30.359111H732.213548v30.359111z m0-95.900191h73.521846v-30.328111H732.213548v30.329111z m-73.553845 48.716573h73.521846v-30.328112h-73.521846v30.328112z m72.819867-376.130981a72.787868 72.787868 0 0 1 72.786868 72.817867L790.826831 433.48355c0 40.224822-19.155439 72.818867-59.37926 72.818867s-59.348261-32.594045-59.348261-72.818867l-13.471606-121.982426a72.787868 72.787868 0 0 1 72.819867-72.818867z m-24.103294 133.858079h48.205588v-101.838017h-48.205588v101.837017z"  horiz-adv-x="1024" />

    
    <glyph glyph-name="component1" unicode="&#58882;" d="M64 832h384v-384H64V832z m0-512h384v-384H64V320z m512 0h384v-384H576V320z m192 128c106.039 0 192 85.961 192 192S874.039 832 768 832s-192-85.961-192-192 85.961-192 192-192z"  horiz-adv-x="1024" />

    
    <glyph glyph-name="cloudupload-fill" unicode="&#59354;" d="M1024 255.808C1024 113.088 919.872 0 787.648 0h-512C123.904 0 0 134.4 0 298.496 0 444.032 94.656 564.48 226.432 593.024 284.16 700.544 391.808 768 512 768c152.32 0 282.112-108.416 323.392-261.12C941.888 482.56 1024 376.96 1024 255.808z m-341.312 139.84L512 581.76 341.312 395.52h341.376z m-213.376 0v-256h85.376v256H469.312z"  horiz-adv-x="1024" />

    
    <glyph glyph-name="clouddownload" unicode="&#59419;" d="M469.312 325.76v256h85.376v-256h128L512 139.712 341.312 325.76h128zM1024 255.872C1024 113.088 919.872 0 787.648 0h-512C123.904 0 0 134.4 0 298.496 0 444.032 94.656 564.48 226.432 593.024 284.16 700.544 391.808 768 512 768c152.32 0 282.112-108.416 323.392-261.12C941.888 482.56 1024 376.96 1024 255.808z m-259.2 205.312c-24.448 129.024-128.896 222.72-252.8 222.72-97.28 0-183.04-57.344-224.64-147.456l-9.28-20.224-20.928-2.944c-103.36-14.4-178.368-104.32-178.368-214.72 0-117.952 88.832-214.4 196.928-214.4h512c88.32 0 157.504 75.136 157.504 171.712 0 88.064-65.92 164.928-144.96 171.776l-29.504 2.56-5.888 30.976z"  horiz-adv-x="1024" />

    
    <glyph glyph-name="cloudupload" unicode="&#59420;" d="M554.688 395.648v-256H469.312v256h-128L512 581.76l170.688-186.24h-128zM1024 255.808C1024 113.088 919.872 0 787.648 0h-512C123.904 0 0 134.4 0 298.496 0 444.032 94.656 564.48 226.432 593.024 284.16 700.544 391.808 768 512 768c152.32 0 282.112-108.416 323.392-261.12C941.888 482.56 1024 376.96 1024 255.808z m-259.2 205.312c-24.448 129.024-128.896 222.72-252.8 222.72-97.28 0-183.04-57.344-224.64-147.456l-9.28-20.224-20.928-2.944c-103.36-14.4-178.368-104.32-178.368-214.72 0-117.952 88.832-214.4 196.928-214.4h512c88.32 0 157.504 75.136 157.504 171.712 0 88.064-65.92 164.928-144.96 171.776l-29.504 2.56-5.888 30.976z"  horiz-adv-x="1024" />

    
    <glyph glyph-name="yuyue1" unicode="&#58919;" d="M499.3 130c30.9 0 56 25.1 56 56s-25.1 56-56 56-56-25.1-56-56 25.1-56 56-56zM279.4 130c30.9 0 56 25.1 56 56s-25.1 56-56 56-56-25.1-56-56 25.1-56 56-56zM724.7 305.9c30.9 0 56 25.1 56 56 0 31-25.1 56-56 56s-56-25.1-56-56 25.1-56 56-56zM499.3 305.9c30.9 0 56 25.1 56 56 0 31-25.1 56-56 56s-56-25.1-56-56 25.1-56 56-56zM279.4 305.9c30.9 0 56 25.1 56 56 0 31-25.1 56-56 56s-56-25.1-56-56 25.1-56 56-56zM870.4 753.3H757.9v11.2c0 18.5-15.1 33.6-33.6 33.6s-33.6-15.1-33.6-33.6v-11.2H334.6v11.2c0 18.5-15.1 33.6-33.6 33.6s-33.6-15.1-33.6-33.6v-11.2H153.6c-49.5 0-89.6-40.1-89.6-89.6v-604.8c0-49.5 40.1-89.6 89.6-89.6h716.8c49.5 0 89.6 40.1 89.6 89.6V663.7c0 49.4-40.1 89.6-89.6 89.6z m44-690.3c0-24.7-20.1-44.8-44.8-44.8H152.8c-24.7 0-44.8 20.1-44.8 44.8V533.4h806.4V63z m0.8 511.1H108.8v89.6c0 24.7 20.1 44.8 44.8 44.8h113.8v-11.2c0-18.5 15.1-33.6 33.6-33.6s33.6 15.1 33.6 33.6v11.2h356.1v-11.2c0-18.5 15.1-33.6 33.6-33.6s33.6 15.1 33.6 33.6v11.2h112.5c24.7 0 44.8-20.1 44.8-44.8v-89.6z"  horiz-adv-x="1024" />

    
    <glyph glyph-name="yuyuexinxi" unicode="&#58930;" d="M827 26.4H196.7c-44 0.1-79.6 35.7-79.6 79.6V457.4h789.5V106c0-43.9-35.7-79.6-79.6-79.6zM196.7 672.6h87.7v-53.5c0-11 8.9-19.9 19.9-19.9 11 0 19.9 8.9 19.9 19.9v53.5h367.5v-53.5c0-11 8.9-19.9 19.9-19.9 11 0 19.9 8.9 19.9 19.9v53.5H827c44-0.1 79.6-35.7 79.6-79.6v-95.8H117.1V593c0 44 35.6 79.6 79.6 79.6zM827 725.7h-95.5v50.6c0 11-8.9 19.9-19.9 19.9-11 0-19.9-8.9-19.9-19.9v-50.6H324.2v50.6c0 11-8.9 19.9-19.9 19.9-11 0-19.9-8.9-19.9-19.9v-50.6h-87.7C123.4 725.6 64.1 666.3 64 593v-487c0.1-73.3 59.4-132.6 132.7-132.7H827c73.3 0.1 132.6 59.4 132.7 132.7V593c-0.1 73.3-59.5 132.6-132.7 132.7zM657.6 366.6l-183.1-183-99.1 99.1c-9.2 9.2-24.2 9.2-33.4 0s-9.2-24.2 0-33.4l115.9-115.9c9.2-9.2 24.2-9.2 33.4 0L691 333.1c9.2 9.2 9.2 24.2 0 33.4-9.2 9.3-24.2 9.3-33.4 0.1z"  horiz-adv-x="1024" />

    
    <glyph glyph-name="jiancha" unicode="&#58931;" d="M737.9 510.6c0-7-2.8-13.6-7.7-18.6-4.9-4.9-11.6-7.7-18.6-7.7H300.1c-9.4 0-18 5-22.7 13.1-4.7 8.1-4.7 18.1 0 26.2 4.7 8.1 13.4 13.1 22.7 13.1h411.6c14.5 0.2 26.2-11.6 26.2-26.1zM479.1 188.2c0-13.6-11-24.5-24.5-24.5H298.3c-8.7 0-16.8 4.7-21.2 12.2-4.4 7.6-4.4 16.9 0 24.5 4.4 7.6 12.5 12.2 21.2 12.2h156.3c13.5 0.1 24.5-10.8 24.5-24.4zM611.4 352.6c0-14.2-11.5-25.6-25.7-25.6H299.5c-14.2 0-25.7 11.5-25.7 25.7s11.5 25.7 25.7 25.7h286.3c14.2-0.1 25.6-11.6 25.6-25.8zM792.2 292h-53.6v53.6c0 13.5-10.9 24.5-24.5 24.5-13.5 0-24.5-11-24.5-24.5V292h-53.7c-13.5 0-24.5-11-24.5-24.5s11-24.5 24.5-24.5h53.7v-53.6c0.3-13.3 11.2-23.9 24.5-23.9s24.2 10.6 24.5 23.9V243h53.7c13.5 0 24.5 11 24.5 24.5-0.1 13.6-11.1 24.5-24.6 24.5zM768.1 784.7H645.8v2.9c0.3 12.5-6.2 24.1-17 30.4-10.7 6.3-24.1 6.3-34.8 0-10.7-6.3-17.2-17.9-17-30.4v-2.9H434.8v2.9c0.4 12.5-6.1 24.2-16.9 30.6-10.8 6.4-24.2 6.4-35 0s-17.3-18.1-16.9-30.6v-2.9H258.9c-106.5 0-193.1-86.5-193.1-192.8V138c0-106.3 86.6-192.8 193.1-192.8h509.2c106.5 0 193.1 86.5 193.2 192.8V591.8c-0.1 106.4-86.7 192.9-193.2 192.9z m137.2-646.8c0-75.4-61.5-136.8-137.2-136.8H258.9c-75.6 0-137.2 61.4-137.2 136.8V591.8c0 75.5 61.5 136.9 137.2 136.9H366v-2.9c0.5-18.6 15.8-33.4 34.4-33.4s33.9 14.8 34.4 33.4v2.9H577v-2.9c-0.2-12.5 6.2-24.1 17-30.4 10.7-6.3 24.1-6.3 34.8 0 10.7 6.3 17.2 17.9 17 30.4v2.9H768c75.7 0 137.2-61.4 137.2-136.9v-453.9z"  horiz-adv-x="1024" />

    
    <glyph glyph-name="excel" unicode="&#58897;" d="M625.664 763.392v-67.072h309.76v-43.008h-309.76v-69.632h309.76v-43.008h-309.76v-68.608h309.76v-43.008h-309.76v-68.608h309.76v-43.008h-309.76v-68.608h309.76v-43.008h-309.76v-68.096h309.76v-43.008h-309.76v-89.088H1024v757.76H625.664zM0-18.944L577.024-128V896L0 786.944M229.376 235.52h-89.6l118.272 187.904-112.64 180.736h92.16l65.536-119.808 67.584 119.808h89.088l-112.64-177.664L466.944 235.52h-93.696l-70.144 125.44-73.728-125.44z"  horiz-adv-x="1024" />

    
    <glyph glyph-name="yuyue" unicode="&#59141;" d="M758.591876 167.117988h75.264991c17.502081 0 31.690522-14.188441 31.690522-31.690522 0-17.502081-14.188441-31.690522-31.690522-31.690522H726.901354c-17.502081 0-31.690522 14.188441-31.690522 31.690522 0 2.558019 0.303041 5.044735 0.87545 7.427466A31.77371 31.77371 0 0 0 695.210832 150.282398V255.257253c0 17.502081 14.188441 31.690522 31.690522 31.690523 17.502081 0 31.690522-14.188441 31.690522-31.690523v-88.139265z m59.419729 260.45648c-17.502081 0-31.690522 14.188441-31.690522 31.690522V760.324952a7.922631 7.922631 0 0 1-7.92263 7.92263H134.68472a7.922631 7.922631 0 0 1-7.922631-7.92263v-744.727273a7.922631 7.922631 0 0 1 7.922631-7.922631h286.205029c17.502081 0 31.690522-14.188441 31.690522-31.690522 0-17.502081-14.188441-31.690522-31.690522-31.690522H95.071567c-17.502081 0-31.690522 14.188441-31.690523 31.690522V799.938104c0 17.502081 14.188441 31.690522 31.690523 31.690523h722.940038c17.502081 0 31.690522-14.188441 31.690523-31.690523v-340.673114c0-17.502081-14.188441-31.690522-31.690523-31.690522zM208.959381 627.62089h466.444874c17.502081 0 31.690522-14.188441 31.690523-31.690522 0-17.502081-14.188441-31.690522-31.690523-31.690523H208.959381c-17.502081 0-31.690522 14.188441-31.690522 31.690523 0 17.502081 14.188441 31.690522 31.690522 31.690522z m4.951644-204.007737h209.94971c17.502081 0 31.690522-14.188441 31.690522-31.690522 0-17.502081-14.188441-31.690522-31.690522-31.690523H213.911025c-17.502081 0-31.690522 14.188441-31.690522 31.690523 0 17.502081 14.188441 31.690522 31.690522 31.690522z m0-204.007737h209.94971c17.502081 0 31.690522-14.188441 31.690522-31.690522 0-17.502081-14.188441-31.690522-31.690522-31.690523H213.911025c-17.502081 0-31.690522 14.188441-31.690522 31.690523 0 17.502081 14.188441 31.690522 31.690522 31.690522z m301.059961 204.007737h43.574469c17.502081 0 31.690522-14.188441 31.690522-31.690522 0-17.502081-14.188441-31.690522-31.690522-31.690523h-43.574469c-17.502081 0-31.690522 14.188441-31.690522 31.690523 0 17.502081 14.188441 31.690522 31.690522 31.690522z m211.930368-479.319149c-123.608882 0-223.814313 100.205431-223.814313 223.814313s100.205431 223.814313 223.814313 223.814314 223.814313-100.205431 223.814313-223.814314-100.205431-223.814313-223.814313-223.814313z m0 55.458414c92.979992 0 168.355899 75.375907 168.355899 168.355899s-75.375907 168.355899-168.355899 168.3559-168.355899-75.375907-168.355899-168.3559 75.375907-168.355899 168.355899-168.355899z"  horiz-adv-x="1024" />

    
    <glyph glyph-name="Cloudupload" unicode="&#58892;" d="M768 279.893333a17.066667 17.066667 0 1 0 0 34.133334c42.922667 0 78.592 14.830933 109.1072 45.329066C907.042133 389.307733 921.6 424.704 921.6 467.6096c0 42.9568-14.574933 78.677333-44.5952 109.2096-30.3104 29.815467-66.030933 44.3904-109.0048 44.3904a97.28 97.28 0 0 1-11.5712-0.7168 17.134933 17.134933 0 0 0-18.193067 11.3152c-11.588267 33.194667-30.907733 63.470933-57.3952 89.975467C633.685333 768.955733 578.4576 791.893333 512 791.893333s-121.668267-22.920533-168.840533-70.0928S273.066667 619.400533 273.066667 552.96v-6.826667a17.066667 17.066667 0 0 0-22.6816-16.110933A112.6912 112.6912 0 0 1 213.333333 535.893333c-30.839467 0-56.490667-10.6496-78.3872-32.546133C113.0496 481.4336 102.4 455.799467 102.4 424.96c0-30.856533 10.6496-56.490667 32.546133-78.3872S182.4768 314.026667 213.333333 314.026667h41.813334a17.066667 17.066667 0 1 0 0-34.133334H213.333333c-39.799467 0-74.2912 14.318933-102.519466 42.530134C82.5856 350.651733 68.266667 385.143467 68.266667 424.96c0 39.799467 14.318933 74.2912 42.5472 102.519467S173.533867 570.026667 213.333333 570.026667c8.942933 0 17.6128-0.7168 25.9584-2.116267 3.3792 68.625067 30.1568 128.443733 79.7184 178.0224C372.1728 799.0784 437.0944 826.026667 512 826.026667c74.922667 0 139.8272-26.948267 192.9728-80.110934 26.88-26.897067 47.3088-57.326933 60.859733-90.589866l2.167467 0.017066c51.626667 0 96.426667-18.295467 133.137067-54.391466C937.437867 564.036267 955.733333 519.236267 955.733333 467.6096c0-51.694933-18.3296-96.221867-54.493866-132.369067C864.529067 298.513067 819.712 279.893333 768 279.893333zM511.146667-78.506667a34.133333 34.133333 0 0 0-34.133334 34.133334V291.362133l-112.401066-112.401066a34.133333 34.133333 0 1 0-48.264534 48.264533l170.666667 170.666667 0.034133 0.034133a34.013867 34.013867 0 0 0 28.535467 9.6768 33.9968 33.9968 0 0 0 19.899733-9.898667l170.461867-170.478933a34.133333 34.133333 0 1 0-48.264533-48.264533l-112.401067 112.401066V-44.373333a34.133333 34.133333 0 0 0-34.133333-34.133334z"  horiz-adv-x="1024" />

    
    <glyph glyph-name="xueshengtijianshuju" unicode="&#58898;" d="M607.89333333 488.53333333c-40.64 0-73.49333333 32.96-73.49333333 73.49333334V861.86666667H189.76c-40.64 0-73.49333333-32.96-73.49333333-73.49333334v-808.74666666c0-40.64 32.96-73.49333333 73.49333333-73.49333334h644.48c40.64 0 73.49333333 32.96 73.49333333 73.49333334V488.53333333H607.89333333zM178.34666667 603.6266666700001c-5.22666667 12.16-7.68 23.89333333-7.68 35.73333333 0 20.8 7.78666667 40 22.08 53.76 14.82666667 14.4 35.2 21.86666667 57.38666666 21.12 11.62666667-0.32 23.14666667-3.30666667 33.70666667-8.53333333 10.56-5.22666667 20.26666667-12.69333333 28.37333333-21.97333334l9.70666667-11.2 9.70666667 11.2c16.21333333 18.66666667 38.82666667 29.76 62.08 30.50666667 22.18666667 0.74666667 42.56-6.82666667 57.38666666-21.12 14.29333333-13.86666667 22.18666667-32.96 22.18666667-53.86666667 0-11.73333333-2.45333333-23.46666667-7.68-35.73333333H379.73333333l-7.36 15.25333333c-2.56 5.44-8 8.85333333-14.4 9.17333334h-0.21333333c-6.18666667 0-11.84-3.73333333-14.4-9.17333334l-17.17333333-34.77333333-22.50666667 47.14666667c-2.88 5.97333333-8.42666667 9.92-14.61333333 10.13333333h-0.64c-5.76 0-10.98666667-2.88-13.97333334-7.78666667l-18.88-29.97333333h-77.22666666z m16.74666666-29.12h76.69333334l15.25333333 24.32 23.89333333-50.02666667c2.88-5.97333333 8.74666667-9.70666667 15.46666667-9.70666667 6.72 0 12.58666667 3.73333333 15.36 9.81333334l16.21333333 32.85333333 2.98666667-6.4h88.53333333c-23.04-32.42666667-61.44-66.77333333-109.33333333-109.65333333l-13.01333333-11.41333334c-2.98666667-2.66666667-7.46666667-2.66666667-10.45333334 0l-13.01333333 11.41333334c-47.46666667 42.56-85.54666667 76.69333333-108.58666667 108.8z m514.98666667-440.85333334c-6.82666667-6.82666667-16.10666667-10.98666667-26.34666667-10.98666666H321.70666667c-24.85333333 23.25333333-22.4 49.06666667-7.78666667 63.68 6.82666667 6.82666667 16.10666667 10.98666667 26.34666667 10.98666666h362.02666666c24.96-23.25333333 22.4-49.17333333 7.78666667-63.68z m0 186.66666667c-6.82666667-6.82666667-16.10666667-10.98666667-26.34666667-10.98666667H321.70666667c-24.85333333 23.25333333-22.4 49.06666667-7.78666667 63.68 6.82666667 6.82666667 16.10666667 10.98666667 26.34666667 10.98666667h362.02666666c24.96-23.25333333 22.4-49.17333333 7.78666667-63.68zM896.53333333 589.86666667L636.05333333 850.34666667c-7.25333333 7.25333333-16.85333333 10.88-26.34666666 10.88h-0.64v-224.53333334c0-40.64 32.96-73.49333333 73.49333333-73.49333333h224.85333333c0.10666667 9.6-3.52 19.30666667-10.88 26.66666667z"  horiz-adv-x="1024" />

    
    <glyph glyph-name="user" unicode="&#58918;" d="M1016.12307733 26.912820269999997v-46.21128214c0-54.61333333-46.21128213-100.82461547-100.82461546-100.82461546H108.70153813C54.0882048-120.12307733 7.87692267-73.91179520000003 7.87692267-19.298461869999983V26.912820269999997c0 121.829744 142.83487147 197.4482048 277.2676928 256.26256426l12.60307733 6.30153814c10.50256427 4.20102613 21.00512853 4.20102613 31.50769173-2.100512 54.61333333-35.70871787 115.5282048-54.61333333 180.6441024-54.61333334s128.13128213 21.00512853 180.6441024 54.61333334c10.50256427 6.30153813 21.00512853 6.30153813 31.5076928 2.100512l12.60307734-6.30153814C873.2882048 224.36102613000003 1016.12307733 150.84307733000003 1016.12307733 26.912820269999997zM512 888.12307733c138.6338464 0 249.96102613-123.930256 249.96102613-277.2676928S650.6338464 333.5876928 512 333.5876928s-249.96102613 123.930256-249.96102613 277.26769173S373.3661536 888.12307733 512 888.12307733z"  horiz-adv-x="1024" />

    
    <glyph glyph-name="save2" unicode="&#59664;" d="M292.571429 18.285714h438.857142v219.428572H292.571429v-219.428572z m512 0h73.142857V530.285714q0 8-5.714286 22t-11.428571 19.714286l-160.571429 160.571429q-5.714286 5.714286-19.428571 11.428571t-22.285715 5.714286v-237.714286q0-22.857143-16-38.857143t-38.857143-16H274.285714q-22.857143 0-38.857143 16t-16 38.857143V749.714286H146.285714v-731.428572h73.142857v237.714286q0 22.857143 16 38.857143t38.857143 16h475.428572q22.857143 0 38.857143-16t16-38.857143v-237.714286z m-219.428572 530.285715V731.428571q0 7.428571-5.428571 12.857143T566.857143 749.714286H457.142857q-7.428571 0-12.857143-5.428572T438.857143 731.428571v-182.857142q0-7.428571 5.428571-12.857143T457.142857 530.285714h109.714286q7.428571 0 12.857143 5.428572t5.428571 12.857143z m365.714286-18.285715v-530.285714q0-22.857143-16-38.857143t-38.857143-16H128q-22.857143 0-38.857143 16t-16 38.857143V768q0 22.857143 16 38.857143t38.857143 16h530.285714q22.857143 0 50.285715-11.428572t43.428571-27.428571l160-160q16-16 27.428571-43.428571t11.428572-50.285715z"  horiz-adv-x="1024" />

    
    <glyph glyph-name="cz-bwdj" unicode="&#59397;" d="M517.2 18l-69.7 38.1-30.6 16.7-30.6-16.7-86.9-47.3-86.7 47.3-30.6 16.7-30.6-16.7-22.6-12.3V736c0 17.7 14.3 32 32 32h511.6c17.7 0 32-14.3 32-32v-381c0-17.7 14.3-32 32-32s32 14.3 32 32V768c0 35.3-26.2 64-58.6 64H123.4C91 832 64.7 803.3 64.7 768v-832L182 0l117.3-64 117.5 64 69.7-38.1c21.3-11.7 47.3 3.8 47.3 28.1 0 11.7-6.4 22.4-16.6 28zM256.6 640c-17.7 0-32-14.3-32-32s14.3-32 32-32h319.8c17.7 0 32 14.3 32 32s-14.3 32-32 32H256.6zM608.4 448c0 17.7-14.3 32-32 32H256.6c-17.7 0-32-14.3-32-32s14.3-32 32-32h319.8c17.7 0 32 14.3 32 32zM512.4 320H256.6c-17.7 0-32-14.3-32-32s14.3-32 32-32h255.8c17.7 0 32 14.3 32 32s-14.3 32-32 32zM915.4 257.1l-2.1 1.8-2.4 1.4c-49.5 29.9-91.2 23.4-117.4 12.7-8.1-3.3-15.2-7.3-21.3-11.2-6.1 4-13.2 7.9-21.3 11.2-26.2 10.7-67.8 17.2-117.4-12.7l-2.4-1.4-2.1-1.8c-30.3-26.2-45.4-59.9-43.8-97.2 2.1-48.1 31.8-81.9 88.1-140 39.7-40.9 78.5-69.1 80.1-70.3l18.8-13.6 18.7 13.6c1.7 1.2 40.4 29.4 80.1 70.3 56.4 58 86 91.9 88.1 140 1.7 37.3-13.4 70.9-43.7 97.2z m-20.2-94.3c-1.3-30.9-26-52.7-69.4-97.6-19.8-20.5-39.7-37.7-53.6-49.1-13.7 11.2-33.2 28.1-52.9 48.4-43.9 45.2-68.7 67.2-70.1 98.3-0.8 17 5.5 31.1 19.7 44.2 20.2 11.5 38.5 14 56 7.6 13.4-4.9 21.9-13.6 23.1-14.9l23.6-29.6 25.1 29.8c0.1 0.1 8 8.7 21 14 17.9 7.3 36.9 5.1 57.8-6.9 14.2-13 20.4-27.1 19.7-44.2z"  horiz-adv-x="1024" />

    
    <glyph glyph-name="eyeclose-fill" unicode="&#59647;" d="M942.3 409.6l-0.1 0.1-0.1 0.1c-36.4 76.7-80 138.7-130.7 186l-142-142c9.3-21.4 14.4-45.1 14.4-69.9 0-97.2-78.8-176-176-176-24.8 0-48.5 5.1-69.9 14.4l-122-122C374.6 72.2 439.8 58 512 58c192.2 0 335.4 100.5 430.2 300.3 7.7 16.2 7.7 35 0.1 51.3zM878.3 741.8l-42.4 42.4c-3.1 3.1-8.2 3.1-11.3 0L707.8 667.5C649.4 695.8 584.2 710 512 710c-192.2 0-335.4-100.5-430.2-300.3v-0.1c-7.7-16.2-7.7-35.2 0-51.5 36.4-76.7 80-138.7 130.7-186.1L111.8 71.5c-3.1-3.1-3.1-8.2 0-11.3l42.4-42.4c3.1-3.1 8.2-3.1 11.3 0l712.8 712.8c3.1 3 3.1 8.1 0 11.2zM348.9 308.6C338.1 331.5 332 357 332 384c0 97.2 78.8 176 176 176 27 0 52.5-6.1 75.4-16.9L348.9 308.6z"  horiz-adv-x="1024" />

    
    <glyph glyph-name="eye-close" unicode="&#59648;" d="M942.3 409.6l-0.1 0.1-0.1 0.1c-36.4 76.7-80 138.7-130.7 186L760.7 545c43.7-40.2 81.5-93.7 114.1-160.9C791.5 211.8 673.4 130 512 130c-51.3 0-98.3 8.3-141.2 25.1l-54.7-54.7C374.6 72.2 439.8 58 512 58c192.2 0 335.4 100.5 430.2 300.3 7.7 16.2 7.7 35 0.1 51.3zM878.3 741.8l-42.4 42.4c-3.1 3.1-8.2 3.1-11.3 0L707.8 667.5C649.4 695.8 584.2 710 512 710c-192.2 0-335.4-100.5-430.2-300.3v-0.1c-7.7-16.2-7.7-35.2 0-51.5 36.4-76.7 80-138.7 130.7-186.1L111.8 71.5c-3.1-3.1-3.1-8.2 0-11.3l42.4-42.4c3.1-3.1 8.2-3.1 11.3 0l712.8 712.8c3.1 3 3.1 8.1 0 11.2zM398.9 358.6c-1.9 8.2-2.9 16.7-2.9 25.4 0 61.9 50.1 112 112 112 8.7 0 17.3-1 25.4-2.9L398.9 358.6z m184.5 184.5C560.5 553.9 535 560 508 560c-97.2 0-176-78.8-176-176 0-27 6.1-52.5 16.9-75.4L263.3 223c-43.7 40.2-81.5 93.7-114.1 160.9C232.6 556.2 350.7 638 512 638c51.3 0 98.3-8.3 141.2-25.1l-69.8-69.8zM508 272c-6.4 0-12.7 0.5-18.8 1.6l-51.1-51.1c21.4-9.3 45.1-14.4 69.9-14.4 97.2 0 176 78.8 176 176 0 24.8-5.1 48.5-14.4 69.9l-51.1-51.1c1-6.1 1.6-12.4 1.6-18.8C620 322.1 569.9 272 508 272z"  horiz-adv-x="1024" />

    


  </font>
</defs>
</svg>
